<svg width="153" height="127" viewBox="0 0 153 127" fill="none" xmlns="http://www.w3.org/2000/svg">
<circle cx="22.5" cy="25.5" r="9" stroke="#686767" stroke-width="3"/>
<circle cx="22.5" cy="25.5" r="9" stroke="#686767" stroke-width="3"/>
<circle cx="22.5" cy="25.5" r="9" stroke="#686767" stroke-width="3"/>
<circle cx="22.5" cy="25.5" r="9" stroke="#686767" stroke-width="3"/>
<path d="M15.5 67C15.5 71.2241 12.2864 74.5 8.5 74.5C4.71363 74.5 1.5 71.2241 1.5 67C1.5 62.7759 4.71363 59.5 8.5 59.5C12.2864 59.5 15.5 62.7759 15.5 67Z" stroke="#686767" stroke-width="3"/>
<path d="M15.5 67C15.5 71.2241 12.2864 74.5 8.5 74.5C4.71363 74.5 1.5 71.2241 1.5 67C1.5 62.7759 4.71363 59.5 8.5 59.5C12.2864 59.5 15.5 62.7759 15.5 67Z" stroke="#686767" stroke-width="3"/>
<path d="M15.5 67C15.5 71.2241 12.2864 74.5 8.5 74.5C4.71363 74.5 1.5 71.2241 1.5 67C1.5 62.7759 4.71363 59.5 8.5 59.5C12.2864 59.5 15.5 62.7759 15.5 67Z" stroke="#686767" stroke-width="3"/>
<path d="M15.5 67C15.5 71.2241 12.2864 74.5 8.5 74.5C4.71363 74.5 1.5 71.2241 1.5 67C1.5 62.7759 4.71363 59.5 8.5 59.5C12.2864 59.5 15.5 62.7759 15.5 67Z" stroke="#686767" stroke-width="3"/>
<path d="M25.5 99C25.5 102.683 22.724 105.5 19.5 105.5C16.276 105.5 13.5 102.683 13.5 99C13.5 95.3175 16.276 92.5 19.5 92.5C22.724 92.5 25.5 95.3175 25.5 99Z" stroke="#686767" stroke-width="3"/>
<path d="M25.5 99C25.5 102.683 22.724 105.5 19.5 105.5C16.276 105.5 13.5 102.683 13.5 99C13.5 95.3175 16.276 92.5 19.5 92.5C22.724 92.5 25.5 95.3175 25.5 99Z" stroke="#686767" stroke-width="3"/>
<path d="M25.5 99C25.5 102.683 22.724 105.5 19.5 105.5C16.276 105.5 13.5 102.683 13.5 99C13.5 95.3175 16.276 92.5 19.5 92.5C22.724 92.5 25.5 95.3175 25.5 99Z" stroke="#686767" stroke-width="3"/>
<path d="M25.5 99C25.5 102.683 22.724 105.5 19.5 105.5C16.276 105.5 13.5 102.683 13.5 99C13.5 95.3175 16.276 92.5 19.5 92.5C22.724 92.5 25.5 95.3175 25.5 99Z" stroke="#686767" stroke-width="3"/>
<path d="M67 4L43 23.8333V103.167L67 123V4Z" fill="#F2F2F0" stroke="#1D2026" stroke-width="3" stroke-linecap="round"/>
<circle cx="6.5" cy="37.5" r="1.5" fill="#686767"/>
<circle cx="34.5" cy="46.5" r="1.5" fill="#686767"/>
<ellipse cx="51.5" cy="41" rx="1.5" ry="2" fill="#686767"/>
<ellipse cx="55" cy="58.5" rx="2" ry="1.5" fill="#686767"/>
<ellipse cx="56.5" cy="84" rx="1.5" ry="2" fill="#686767"/>
<circle cx="34.5" cy="70.5" r="1.5" fill="#1C2833"/>
<ellipse cx="10" cy="51.5" rx="2" ry="1.5" fill="#1C2833"/>
<ellipse cx="25.5" cy="53" rx="1.5" ry="2" fill="#686767"/>
<ellipse cx="27.5" cy="86" rx="1.5" ry="2" fill="#686767"/>
<circle cx="5" cy="91" r="2" fill="#1C2833"/>
<path d="M109 83.1382C112.449 80.0154 121.904 75.6435 132.13 83.1382C142.357 90.6328 148.971 87.8222 151 85.4801" stroke="#686767" stroke-width="3" stroke-linecap="round"/>
<path d="M87 93.5C89.8636 91.6134 96.6955 88.9723 101.114 93.5C105.532 98.0277 111.545 95.3866 114 93.5" stroke="#686767" stroke-width="3" stroke-linecap="round"/>
<path d="M79 62.683C84.9574 59.1491 99.5532 54.2016 110.277 62.683C121 71.1643 133.894 67.6304 139 64.8033" stroke="#686767" stroke-width="3" stroke-linecap="round"/>
<path d="M79 39C82.5094 36.7361 90.9321 33.5667 96.5472 39C102.162 44.4333 107.855 41.2639 110 39" stroke="#686767" stroke-width="3" stroke-linecap="round"/>
<path d="M122 53C123.829 50.9088 128.829 47.3536 134.195 49.8631C139.561 52.3726 144.967 50.9088 147 49.8631" stroke="#686767" stroke-width="3" stroke-linecap="round"/>
</svg>
