<svg width="152" height="74" viewBox="0 0 152 74" fill="none" xmlns="http://www.w3.org/2000/svg">
<line x1="79.5" y1="1.5" x2="79.5" y2="72.5" stroke="#686767" stroke-width="3" stroke-linecap="round"/>
<line x1="67.299" y1="5.74567" x2="78.8091" y2="17.0386" stroke="#686767" stroke-width="3" stroke-linecap="round"/>
<line x1="91.8615" y1="6.21298" x2="80.1134" y2="17.526" stroke="#686767" stroke-width="3" stroke-linecap="round"/>
<line x1="1.5" y1="-1.5" x2="17.6249" y2="-1.5" transform="matrix(0.713809 -0.700341 -0.700341 -0.713809 65.1778 67.8423)" stroke="#686767" stroke-width="3" stroke-linecap="round"/>
<line x1="1.5" y1="-1.5" x2="17.8096" y2="-1.5" transform="matrix(-0.72032 -0.693642 -0.693642 0.72032 91.9016 69.5161)" stroke="#686767" stroke-width="3" stroke-linecap="round"/>
<line x1="109.919" y1="19.5404" x2="48.8803" y2="55.6199" stroke="#686767" stroke-width="3" stroke-linecap="round"/>
<line x1="100.38" y1="11.1377" x2="96.5007" y2="26.0075" stroke="#686767" stroke-width="3" stroke-linecap="round"/>
<line x1="111.097" y1="33.5731" x2="96.3978" y2="28.1689" stroke="#686767" stroke-width="3" stroke-linecap="round"/>
<line x1="1.5" y1="-1.5" x2="16.8675" y2="-1.5" transform="matrix(0.969833 0.24377 0.24377 -0.969833 46.3683 40.9585)" stroke="#686767" stroke-width="3" stroke-linecap="round"/>
<line x1="1.5" y1="-1.5" x2="17.1614" y2="-1.5" transform="matrix(0.148573 -0.988901 -0.988901 -0.148573 58.8986 64.7271)" stroke="#686767" stroke-width="3" stroke-linecap="round"/>
<line x1="48.8804" y1="16.9578" x2="109.919" y2="53.0373" stroke="#686767" stroke-width="3" stroke-linecap="round"/>
<line x1="96.3425" y1="46.5721" x2="101.154" y2="62.7571" stroke="#686767" stroke-width="3" stroke-linecap="round"/>
<line x1="112.816" y1="41.42" x2="97.1609" y2="45.7686" stroke="#686767" stroke-width="3" stroke-linecap="round"/>
<line x1="58.7351" y1="9.22634" x2="63.2933" y2="24.6374" stroke="#686767" stroke-width="3" stroke-linecap="round"/>
<line x1="62.13" y1="26.705" x2="45.9342" y2="31.7388" stroke="#686767" stroke-width="3" stroke-linecap="round"/>
<path d="M124 9.3701C128.875 8.34469 140.9 8.83511 150 19" stroke="#686767" stroke-width="3" stroke-linecap="round"/>
<path d="M2 49.6922C4.73273 48.8267 11.3586 48.0767 16 52" stroke="#686767" stroke-width="3" stroke-linecap="round"/>
<path d="M20 55C21.6202 56.25 26.0884 59 31 60" stroke="#686767" stroke-width="3" stroke-linecap="round"/>
</svg>
