<svg width="11" height="20" viewBox="0 0 11 20" fill="none" xmlns="http://www.w3.org/2000/svg">
<path d="M9.60597 3.91503H6.63956C6.37731 3.91503 6.12581 4.02188 5.94037 4.21207C5.75494 4.40226 5.65076 4.66022 5.65076 4.92919V7.97166H9.60597C9.66139 7.9704 9.71629 7.98281 9.76606 8.00785C9.81583 8.03289 9.85901 8.06982 9.89196 8.11554C9.92491 8.16126 9.94667 8.21443 9.9554 8.27058C9.96414 8.32672 9.9596 8.3842 9.94216 8.43817L9.21045 10.6693C9.17756 10.7692 9.11512 10.8561 9.03182 10.9179C8.94852 10.9797 8.84851 11.0133 8.74571 11.0141H5.65076V18.6203C5.65076 18.7548 5.59867 18.8838 5.50595 18.9789C5.41323 19.074 5.28748 19.1274 5.15636 19.1274H2.68435C2.55323 19.1274 2.42747 19.074 2.33475 18.9789C2.24204 18.8838 2.18995 18.7548 2.18995 18.6203V11.0141H0.706743C0.575619 11.0141 0.449867 10.9607 0.357148 10.8656C0.26443 10.7705 0.212341 10.6415 0.212341 10.507V8.47874C0.212341 8.34425 0.26443 8.21527 0.357148 8.12018C0.449867 8.02508 0.575619 7.97166 0.706743 7.97166H2.18995V4.92919C2.18995 3.8533 2.60666 2.82148 3.3484 2.06072C4.09015 1.29995 5.09617 0.872559 6.14516 0.872559H9.60597C9.73709 0.872559 9.86285 0.925983 9.95557 1.02108C10.0483 1.11617 10.1004 1.24515 10.1004 1.37964V3.40795C10.1004 3.54244 10.0483 3.67141 9.95557 3.76651C9.86285 3.86161 9.73709 3.91503 9.60597 3.91503Z" fill="white"/>
</svg>
