<svg width="32" height="19" viewBox="0 0 32 19" fill="none" xmlns="http://www.w3.org/2000/svg">
<path fill-rule="evenodd" clip-rule="evenodd" d="M25.09 3.19124L16.804 10.7053C15.454 10.4156 14.002 10.8481 13.016 12.0028C11.546 13.7328 11.686 16.3866 13.334 17.9318C14.98 19.4771 17.51 19.328 18.982 17.6001C19.966 16.4433 20.214 14.8792 19.786 13.504L26 4.04154L25.09 3.19124ZM6 16.796H0C0 7.52671 7.17 0 16 0C18.326 0 20.538 0.522776 22.534 1.46125L16.954 6.34469L16 6.2985C10.482 6.2985 6 11.0014 6 16.796ZM32 16.796H26C26 14.982 25.562 13.2772 24.79 11.7887L28.248 5.99197C30.588 8.91447 32 12.6831 32 16.796Z" fill="#1C2833"/>
</svg>
