<svg width="19" height="34" viewBox="0 0 19 34" fill="none" xmlns="http://www.w3.org/2000/svg">
<path d="M9.5 2.83333C10.7087 2.83333 11.6923 3.78675 11.6923 4.95833V15.6187C11.6923 17.8415 12.4435 18.8587 13.7545 19.9396C15.2307 21.1551 16.0769 22.9231 16.0769 24.7917C16.0769 28.3064 13.1261 31.1667 9.5 31.1667C5.87392 31.1667 2.92308 28.3064 2.92308 24.7917C2.92308 22.9231 3.76931 21.1551 5.24692 19.9396C6.55646 18.8615 7.30769 17.8429 7.30769 15.6187V4.95833C7.30769 3.78675 8.29131 2.83333 9.5 2.83333ZM9.5 0C6.67485 0 4.38462 2.21992 4.38462 4.95833V15.6187C4.38462 16.4503 4.00754 17.2408 3.35423 17.7792C1.30369 19.4678 0 21.9796 0 24.7917C0 29.8775 4.25162 34 9.5 34C14.7484 34 19 29.8775 19 24.7917C19 21.9796 17.6963 19.4678 15.6458 17.7792C14.9925 17.2408 14.6154 16.4503 14.6154 15.6187V4.95833C14.6154 2.21992 12.3252 0 9.5 0ZM12.5795 20.8505C11.1004 19.5897 10.2308 18.394 10.2308 16.2888V14.1667H8.76923V16.2888C8.76923 18.3912 7.89669 19.5925 6.42054 20.8505C5.26008 21.8393 4.38462 23.1767 4.38462 24.7917C4.38462 27.5301 6.67485 29.75 9.5 29.75C12.3252 29.75 14.6154 27.5301 14.6154 24.7917C14.6154 23.1767 13.7399 21.8407 12.5795 20.8505Z" fill="#1C2833"/>
</svg>
