<svg width="1440" height="213" viewBox="0 0 1440 213" fill="none" xmlns="http://www.w3.org/2000/svg">
<path d="M1191.13 160.25V203.25H1227.38V160.25H1191.13ZM1200.25 201.625H1196.82V194.937H1200.25V201.625ZM1200.25 191.147H1196.82V184.459H1200.25V191.147ZM1200.25 180.666H1196.82V173.978H1200.25V180.666ZM1200.25 170.375H1196.82V163.313H1200.25V170.375ZM1206.63 201.625H1203.19V194.937H1206.63V201.625ZM1206.63 191.147H1203.19V184.459H1206.63V191.147ZM1206.63 180.666H1203.19V173.978H1206.63V180.666ZM1206.63 170.375H1203.19V163.313H1206.63V170.375ZM1213 201.625H1209.57V194.937H1213V201.625ZM1213 191.147H1209.57V184.459H1213V191.147ZM1213 180.666H1209.57V173.978H1213V180.666ZM1213 170.375H1209.57V163.313H1213V170.375ZM1219.38 201.625H1215.94V194.937H1219.38V201.625ZM1219.38 191.147H1215.94V184.459H1219.38V191.147ZM1219.38 180.666H1215.94V173.978H1219.38V180.666ZM1219.38 170.375H1215.94V163.313H1219.38V170.375Z" fill="white"/>
<path d="M1235.25 151.875V160.25H1227.38V203.25H1278.5V175.375V160.25V151.875H1235.25ZM1251.5 199.5H1234.13V196.937H1251.5V199.5ZM1251.5 194.696H1234.13V192.133H1251.5V194.696ZM1251.5 189.893H1234.13V187.33H1251.5V189.893ZM1251.5 185.09H1234.13V182.527H1251.5V185.09ZM1251.5 180.285H1234.13V177.722H1251.5V180.285ZM1251.5 175.483H1234.13V172.92H1251.5V175.483ZM1251.5 170.679H1234.13V168.116H1251.5V170.679ZM1251.5 165.875H1234.13V163.313H1251.5V165.875ZM1274.25 199.379H1256.88V196.816H1274.25V199.379ZM1274.25 194.576H1256.88V192.013H1274.25V194.576ZM1274.25 189.773H1256.88V187.21H1274.25V189.773ZM1274.25 184.969H1256.88V182.406H1274.25V184.969ZM1274.25 180.165H1256.88V177.602H1274.25V180.165ZM1274.25 175.361H1256.88V172.798H1274.25V175.361ZM1274.25 170.559H1256.88V167.996H1274.25V170.559ZM1274.25 165.754H1256.88V163.191H1274.25V165.754Z" fill="white"/>
<path d="M1324.97 146.437C1323.89 132.389 1312.93 131.925 1312.93 131.925C1311.23 114.634 1299.5 114.48 1299.5 114.48C1284.52 115.252 1283.9 132.698 1283.9 132.698C1272.17 131.463 1272.79 143.505 1272.79 143.505C1272.48 152.922 1280.04 155.855 1280.04 155.855C1278.8 172.411 1294.07 173.062 1297.33 173.013V203.251H1300.11V173.279C1318.36 175.093 1314.93 156.472 1314.93 156.472C1324.04 155.391 1324.97 146.437 1324.97 146.437Z" stroke="white" stroke-width="3" stroke-miterlimit="10"/>
<path d="M1338.33 165.783C1337.62 156.518 1330.39 156.213 1330.39 156.213C1329.27 144.811 1321.53 144.709 1321.53 144.709C1311.66 145.218 1311.25 156.723 1311.25 156.723C1303.51 155.909 1303.92 163.85 1303.92 163.85C1303.72 170.06 1308.71 171.995 1308.71 171.995C1307.89 182.913 1317.96 183.342 1320.11 183.309V203.25H1321.94V183.484C1333.98 184.681 1331.71 172.401 1331.71 172.401C1337.72 171.689 1338.33 165.783 1338.33 165.783Z" stroke="white" stroke-width="3" stroke-miterlimit="10"/>
<path d="M242.146 169.95C241.529 161.931 235.274 161.667 235.274 161.667C234.305 151.8 227.608 151.712 227.608 151.712C219.062 152.152 218.71 162.108 218.71 162.108C212.014 161.403 212.366 168.275 212.366 168.275C212.19 173.649 216.508 175.323 216.508 175.323C215.799 184.772 224.512 185.143 226.375 185.116V202.372H227.961V185.268C238.376 186.304 236.419 175.677 236.419 175.677C241.617 175.06 242.146 169.95 242.146 169.95Z" stroke="white" stroke-width="3" stroke-miterlimit="10"/>
<path d="M1231.58 188.928C1232.28 188.928 1232.84 188.362 1232.84 187.663V117.197C1232.84 114.729 1231.17 112.721 1229.11 112.721C1227.05 112.721 1225.37 114.729 1225.37 117.197V185.3C1225.37 185.996 1225.93 186.563 1226.63 186.563C1227.33 186.563 1227.9 185.997 1227.9 185.3V117.197C1227.9 116.08 1228.54 115.249 1229.11 115.249C1229.68 115.249 1230.32 116.08 1230.32 117.197V187.663C1230.32 188.361 1230.89 188.928 1231.58 188.928Z" fill="white"/>
<path d="M1230.57 103.094C1230.15 102.979 1226.47 101.724 1228.55 93.843C1228.55 93.817 1228.56 93.793 1228.57 93.767L1238.54 63.441C1238.71 62.806 1239.08 62.242 1239.58 61.851C1240.18 61.383 1240.9 61.214 1241.55 61.385C1242.21 61.558 1242.75 62.06 1243.04 62.763C1243.27 63.342 1243.32 64.007 1243.16 64.644L1237.44 96.009C1237.44 96.038 1237.43 96.071 1237.42 96.103C1236.17 100.855 1234.27 103.254 1231.74 103.254C1231.36 103.254 1230.97 103.2 1230.57 103.094ZM1240.34 66.062L1230.98 94.522C1229.84 98.884 1230.8 100.425 1231.29 100.673C1231.61 100.756 1231.98 100.822 1232.46 100.493C1233 100.124 1234.05 98.985 1234.97 95.507L1240.34 66.062Z" fill="white"/>
<path d="M1184.63 119.693C1183.94 119.385 1183.46 118.83 1183.3 118.173C1183.01 116.903 1183.97 115.594 1185.44 115.229L1215.86 105.687C1215.89 105.676 1215.92 105.667 1215.95 105.662C1219.31 104.884 1221.72 104.925 1223.33 105.781C1224.9 106.615 1225.21 107.952 1225.33 108.471C1225.42 108.901 1226.02 112.736 1218.09 114.571C1218.06 114.578 1218.03 114.582 1218.01 114.587L1186.53 119.879C1186.31 119.928 1186.08 119.951 1185.86 119.951C1185.43 119.951 1185.01 119.864 1184.63 119.693ZM1222.85 108.961C1222.77 108.641 1222.67 108.285 1222.15 108.012C1221.57 107.704 1220.07 107.307 1216.57 108.113L1188.01 117.07L1217.55 112.102C1221.94 111.078 1222.86 109.515 1222.85 108.961Z" fill="white"/>
<path d="M1258.62 142.096L1236.01 119.617C1235.99 119.596 1235.97 119.57 1235.95 119.547C1232.26 115.274 1231.63 112.043 1234.07 109.937C1234.41 109.655 1237.52 107.338 1242.84 113.511C1242.86 113.531 1242.87 113.551 1242.89 113.571L1262.23 138.973C1262.65 139.477 1262.91 140.101 1262.95 140.734C1262.99 141.49 1262.73 142.176 1262.22 142.616C1261.82 142.963 1261.32 143.127 1260.79 143.127C1260.03 143.125 1259.22 142.771 1258.62 142.096ZM1235.66 111.903C1235.41 112.119 1235.14 112.382 1235.14 112.966C1235.14 113.624 1235.48 115.13 1237.83 117.859L1259.05 138.964L1240.9 115.13C1237.95 111.719 1236.14 111.636 1235.66 111.903Z" fill="white"/>
<path d="M1225.34 107.553C1225.34 105.115 1227.33 103.13 1229.77 103.13C1232.21 103.13 1234.19 105.115 1234.19 107.553C1234.19 109.991 1232.21 111.976 1229.77 111.976C1227.33 111.976 1225.34 109.99 1225.34 107.553ZM1227.87 107.553C1227.87 108.6 1228.72 109.45 1229.77 109.45C1230.81 109.45 1231.66 108.599 1231.66 107.553C1231.66 106.508 1230.81 105.656 1229.77 105.656C1228.72 105.655 1227.87 106.508 1227.87 107.553Z" fill="white"/>
<path d="M188 209.479C187.271 209.479 185.333 209.479 185.333 207.77V90.2869C185.333 88.1199 186.505 86.4219 188 86.4219C189.495 86.4219 190.667 88.1199 190.667 90.2869V207.769C190.667 209.479 188.932 209.479 188 209.479ZM187.121 207.635C187.258 207.664 187.517 207.69 188 207.69C188.258 207.69 188.657 207.69 188.878 207.653L188.879 90.2879C188.879 89.0199 188.301 88.2109 188 88.2109C187.699 88.2109 187.121 89.0209 187.121 90.2879V207.635Z" fill="white"/>
<path d="M183.752 78.7227C183.475 78.7227 183.172 78.6877 182.847 78.6017C181.227 78.1777 179.554 76.6717 177.733 73.9997C177.72 73.9807 177.708 73.9618 177.697 73.9408L162.41 47.3457C161.71 46.2877 161.853 44.9037 162.73 44.3057C163.608 43.7077 164.954 44.0827 165.681 45.1257L184.491 69.4087C184.502 69.4237 184.512 69.4377 184.523 69.4527C188.765 75.6757 186.069 77.8237 185.748 78.0487C185.444 78.2567 184.761 78.7227 183.752 78.7227ZM179.229 73.0217C181.145 75.8227 182.5 76.6627 183.3 76.8727C183.997 77.0557 184.419 76.7917 184.701 76.6007C184.816 76.4887 186.148 75.0257 183.06 70.4857L164.252 46.2037C164.241 46.1887 164.231 46.1757 164.22 46.1597C164.071 45.9417 163.869 45.8437 163.753 45.8177C163.735 45.9307 163.756 46.1497 163.908 46.3727C163.921 46.3917 163.933 46.4117 163.944 46.4317L179.229 73.0217Z" fill="white"/>
<path d="M198.648 84.5128C193.289 84.5138 192.774 81.8028 192.731 81.4568C192.403 78.5918 194.864 76.8438 200.046 76.2488C200.069 76.2458 200.091 76.2438 200.114 76.2438L230.768 75.0938C232.024 74.9668 233.188 75.7388 233.31 76.7918V76.7928C233.431 77.8488 232.472 78.8638 231.211 79.0228L200.963 84.3658C200.945 84.3688 200.927 84.3718 200.909 84.3748C200.073 84.4708 199.322 84.5128 198.648 84.5128ZM194.502 81.2068C194.547 81.3608 195.225 83.2198 200.678 82.6008L230.924 77.2578C230.942 77.2538 230.959 77.2518 230.977 77.2498C231.239 77.2198 231.421 77.0868 231.498 76.9958C231.405 76.9278 231.201 76.8438 230.935 76.8748C230.912 76.8768 230.889 76.8788 230.866 76.8798L200.216 78.0288C196.844 78.4198 195.471 79.2278 194.913 79.8398C194.426 80.3708 194.464 80.8668 194.502 81.2068Z" fill="white"/>
<path d="M164.885 121.125C164.6 121.125 164.32 121.059 164.064 120.918C163.132 120.408 162.856 119.039 163.455 117.917L176.554 90.1328C176.562 90.1168 176.57 90.1008 176.579 90.0848C180.197 83.4808 183.335 84.9058 183.682 85.0918C186.211 86.4768 186.218 89.4958 183.712 94.0708C183.701 94.0918 183.689 94.1108 183.677 94.1308L166.92 119.824C166.456 120.643 165.653 121.125 164.885 121.125ZM178.159 90.9198L165.061 118.701C165.053 118.718 165.045 118.734 165.037 118.75C164.911 118.98 164.914 119.206 164.944 119.32C165.053 119.285 165.238 119.168 165.368 118.931C165.379 118.91 165.391 118.891 165.403 118.871L182.158 93.1808C183.785 90.2018 183.918 88.6148 183.741 87.8058C183.587 87.1018 183.16 86.8458 182.862 86.6808C182.711 86.6308 180.804 86.1068 178.159 90.9198Z" fill="white"/>
<path d="M188 85.7396C185.831 85.7396 184.066 83.9746 184.066 81.8056C184.066 79.6356 185.831 77.8706 188 77.8706C190.169 77.8706 191.934 79.6356 191.934 81.8056C191.934 83.9756 190.169 85.7396 188 85.7396ZM188 79.6596C186.817 79.6596 185.854 80.6226 185.854 81.8056C185.854 82.9886 186.816 83.9516 188 83.9516C189.184 83.9516 190.146 82.9886 190.146 81.8056C190.146 80.6226 189.183 79.6596 188 79.6596Z" fill="white"/>
<path d="M1398.93 169.588H1344.87C1344.38 169.588 1343.98 169.188 1343.98 168.694V165.143C1343.98 164.65 1344.38 164.249 1344.87 164.249H1398.93C1399.42 164.249 1399.82 164.649 1399.82 165.143V168.694C1399.82 169.188 1399.42 169.588 1398.93 169.588ZM1345.76 167.801H1398.03V166.037H1345.76V167.801Z" fill="white"/>
<path d="M1398.93 175.399H1344.87C1344.38 175.399 1343.98 174.999 1343.98 174.504V170.953C1343.98 170.459 1344.38 170.058 1344.87 170.058H1398.93C1399.42 170.058 1399.82 170.458 1399.82 170.953V174.504C1399.82 174.998 1399.42 175.399 1398.93 175.399ZM1345.76 173.609H1398.03V171.847H1345.76V173.609Z" fill="white"/>
<path d="M1398.93 181.207H1344.87C1344.38 181.207 1343.98 180.807 1343.98 180.313V176.762C1343.98 176.268 1344.38 175.867 1344.87 175.867H1398.93C1399.42 175.867 1399.82 176.267 1399.82 176.762V180.313C1399.82 180.807 1399.42 181.207 1398.93 181.207ZM1345.76 179.419H1398.03V177.656H1345.76V179.419Z" fill="white"/>
<path d="M1400.57 191.67H1343.22C1342.73 191.67 1342.33 191.27 1342.33 190.775V185.11C1342.33 184.617 1342.73 184.216 1343.22 184.216H1400.57C1401.06 184.216 1401.46 184.616 1401.46 185.11V190.775C1401.46 191.27 1401.06 191.67 1400.57 191.67ZM1344.12 189.881H1399.68V186.004H1344.12V189.881Z" fill="white"/>
<path d="M1357.62 201.607H1354.13C1353.64 201.607 1353.24 201.207 1353.24 200.713V190.775C1353.24 190.281 1353.64 189.88 1354.13 189.88H1357.62C1358.12 189.88 1358.52 190.28 1358.52 190.775V200.713C1358.52 201.206 1358.12 201.607 1357.62 201.607ZM1355.03 199.818H1356.73V191.67H1355.03V199.818Z" fill="white"/>
<path d="M1389.66 201.607H1386.17C1385.68 201.607 1385.28 201.207 1385.28 200.713V190.775C1385.28 190.281 1385.68 189.88 1386.17 189.88H1389.66C1390.16 189.88 1390.56 190.28 1390.56 190.775V200.713C1390.56 201.206 1390.16 201.607 1389.66 201.607ZM1387.07 199.818H1388.77V191.67H1387.07V199.818Z" fill="white"/>
<path d="M1360.23 171.464H1357.62C1357.34 171.464 1357.11 171.235 1357.11 170.953V168.694C1357.11 168.412 1357.34 168.183 1357.62 168.183H1360.23C1360.51 168.183 1360.74 168.412 1360.74 168.694V170.953C1360.74 171.235 1360.52 171.464 1360.23 171.464ZM1358.13 170.442H1359.72V169.206H1358.13V170.442Z" fill="white"/>
<path d="M1386.17 171.464H1383.56C1383.28 171.464 1383.05 171.235 1383.05 170.953V168.694C1383.05 168.412 1383.28 168.183 1383.56 168.183H1386.17C1386.45 168.183 1386.68 168.412 1386.68 168.694V170.953C1386.68 171.235 1386.45 171.464 1386.17 171.464ZM1384.07 170.442H1385.66V169.206H1384.07V170.442Z" fill="white"/>
<path d="M1360.23 177.274H1357.62C1357.34 177.274 1357.11 177.045 1357.11 176.763V174.856C1357.11 174.573 1357.34 174.344 1357.62 174.344H1360.23C1360.51 174.344 1360.74 174.573 1360.74 174.856V176.763C1360.74 177.045 1360.52 177.274 1360.23 177.274ZM1358.13 176.252H1359.72V175.365H1358.13V176.252Z" fill="white"/>
<path d="M1386.17 177.274H1383.56C1383.28 177.274 1383.05 177.045 1383.05 176.763V174.856C1383.05 174.573 1383.28 174.344 1383.56 174.344H1386.17C1386.45 174.344 1386.68 174.573 1386.68 174.856V176.763C1386.68 177.045 1386.45 177.274 1386.17 177.274ZM1384.07 176.252H1385.66V175.365H1384.07V176.252Z" fill="white"/>
<path d="M1360.23 185.621H1357.62C1357.34 185.621 1357.11 185.392 1357.11 185.11V180.313C1357.11 180.031 1357.34 179.802 1357.62 179.802H1360.23C1360.51 179.802 1360.74 180.031 1360.74 180.313V185.11C1360.74 185.393 1360.52 185.621 1360.23 185.621ZM1358.13 184.6H1359.72V180.825H1358.13V184.6Z" fill="white"/>
<path d="M1386.17 185.621H1383.56C1383.28 185.621 1383.05 185.392 1383.05 185.11V180.313C1383.05 180.031 1383.28 179.802 1383.56 179.802H1386.17C1386.45 179.802 1386.68 180.031 1386.68 180.313V185.11C1386.68 185.393 1386.45 185.621 1386.17 185.621ZM1384.07 184.6H1385.66V180.825H1384.07V184.6Z" fill="white"/>
<path d="M215.021 180.948C214.151 172.499 208.187 175.232 208.187 175.232C204.335 173.741 202.223 176.101 202.223 176.101C198.495 174.983 196.258 177.841 196.258 177.841C192.281 182.936 197.004 186.29 197.004 186.29C193.649 188.9 196.382 193.87 196.382 193.87C198.663 197.418 202.262 197.176 204.335 196.656V201.947H207.69V196.411C215.454 197.278 215.021 189.893 215.021 189.893C220.364 185.049 215.021 180.948 215.021 180.948Z" fill="white"/>
<path d="M1172.03 202.862C1172.04 202.862 1172.05 202.855 1172.06 202.855H1188.91C1190.73 202.855 1192.2 201.841 1192.2 200.597C1192.2 199.443 1190.97 198.493 1189.31 198.357C1189.32 198.302 1189.32 198.25 1189.32 198.198C1189.32 196.954 1187.71 195.941 1185.73 195.941C1185.27 195.941 1184.82 195.994 1184.39 196.102C1184.16 194.762 1182.16 193.73 1179.75 193.73C1177.49 193.73 1175.59 194.617 1175.17 195.853C1175.03 195.819 1174.88 195.797 1174.74 195.775C1174.71 195.622 1174.69 195.468 1174.66 195.318C1174.54 194.631 1174.42 193.985 1174.5 193.275C1174.5 193.12 1174.5 192.964 1174.5 192.808L1174.51 191.857L1174.48 191.313C1174.43 190.56 1174.4 189.74 1174.37 188.804L1174.35 188.288C1174.21 187.362 1174.23 186.427 1174.25 185.521C1174.26 185.113 1174.27 184.706 1174.26 184.299L1174.23 183.296C1174.23 183.119 1174.24 182.976 1174.26 182.834C1174.27 182.713 1174.28 182.592 1174.3 182.473C1174.39 181.818 1174.6 181.269 1174.93 180.789C1175.02 180.652 1175.11 180.52 1175.2 180.394C1175.52 179.974 1175.88 179.605 1176.27 179.213C1176.63 178.845 1177 178.464 1177.33 178.045L1177.59 177.753C1177.85 177.459 1178.11 177.163 1178.35 176.861C1178.45 176.748 1178.56 176.634 1178.66 176.524C1178.88 176.301 1179.09 176.084 1179.31 175.877C1179.42 175.776 1179.54 175.679 1179.66 175.587C1180.32 175.086 1180.97 174.8 1181.65 174.71L1181.67 174.711C1181.72 174.711 1181.78 174.713 1181.84 174.713L1181.91 174.712C1181.91 174.712 1181.91 174.712 1181.91 174.712C1181.93 174.712 1181.95 174.713 1181.97 174.713L1182.04 174.712C1182.19 174.709 1182.32 174.692 1182.43 174.661C1182.53 174.66 1182.71 174.64 1182.84 174.557C1183.48 175.375 1184.31 175.955 1185.29 176.225C1185.7 176.338 1186.13 176.396 1186.56 176.396C1186.56 176.396 1186.56 176.396 1186.56 176.396C1189.45 176.396 1192.41 173.863 1193.59 170.372C1194.42 167.96 1194.28 165.434 1193.23 163.618C1192.55 162.454 1191.56 161.662 1190.35 161.329C1189.67 161.141 1188.93 161.11 1188.19 161.236C1188.81 158.308 1187.76 155.621 1185.67 154.745C1185.73 154.595 1185.78 154.442 1185.83 154.288C1186.54 152.218 1186.42 150.06 1185.53 148.517C1184.97 147.542 1184.13 146.882 1183.13 146.604C1182.79 146.511 1182.43 146.462 1182.07 146.462C1180.32 146.462 1178.53 147.54 1177.26 149.354C1176.91 149.175 1176.53 149.032 1176.15 148.927C1175.62 148.779 1175.06 148.703 1174.49 148.703C1171.22 148.703 1167.57 151.141 1164.72 155.228C1162.07 154.934 1159.25 155.979 1157.18 158.015C1154.79 158.145 1152.53 160.028 1151.65 162.618C1151.03 164.42 1151.16 166.285 1152.01 167.737C1152.62 168.8 1153.55 169.53 1154.69 169.844C1155.61 170.096 1156.61 170.055 1157.57 169.723C1157.58 173.813 1159.89 177.179 1163.36 178.135C1164.02 178.319 1164.71 178.412 1165.42 178.412C1167.02 178.412 1168.62 177.93 1170.08 177.057C1170.41 177.48 1170.7 177.968 1170.94 178.52C1171 178.649 1171.05 178.779 1171.11 178.927C1171.19 179.071 1171.27 179.218 1171.35 179.383C1171.43 179.506 1171.5 179.635 1171.56 179.773C1171.71 180.04 1171.82 180.323 1171.9 180.618C1171.94 180.76 1171.97 180.903 1171.99 181.046C1172.23 182.57 1172.05 184.062 1171.87 185.67C1171.86 185.819 1171.85 185.969 1171.84 186.118C1171.75 187.031 1171.62 187.93 1171.44 188.788C1171.37 189.108 1171.27 189.425 1171.17 189.729C1170.91 190.557 1170.65 191.414 1170.91 192.416C1171.02 192.869 1170.97 193.366 1170.91 193.892C1170.88 194.159 1170.85 194.433 1170.84 194.705L1170.82 195.156C1170.79 195.619 1170.76 195.995 1170.73 196.335C1170.72 196.466 1170.7 196.597 1170.69 196.722C1170.68 196.811 1170.67 196.902 1170.66 196.991C1170.36 197.35 1170.18 197.758 1170.18 198.197C1170.18 198.289 1170.19 198.38 1170.2 198.47C1170.19 198.479 1170.18 198.486 1170.16 198.494C1170.16 198.497 1170.15 198.499 1170.15 198.501C1169.82 198.396 1169.47 198.338 1169.1 198.338C1167.53 198.338 1166.25 199.351 1166.25 200.596C1166.25 201.84 1167.53 202.854 1169.1 202.854H1171.83L1171.84 202.861H1144.25V148.774H1149.96C1150.19 148.774 1150.38 148.618 1150.38 148.426V146.195C1150.38 146.003 1150.19 145.846 1149.96 145.846H1101.55C1101.32 145.846 1101.13 146.002 1101.13 146.195V148.426C1101.13 148.617 1101.32 148.774 1101.55 148.774H1107.27V202.861H1096.77V137.596L1096.77 137.567C1088.54 117.075 1073.52 127.897 1054.46 117.831L1054.23 117.822V202.861H1048.64C1048.88 202.861 1049.07 202.638 1049.07 202.365V97.8619C1049.07 97.5879 1048.88 97.3649 1048.64 97.3649H1044.1C1044.13 97.2939 1044.15 97.2109 1044.15 97.1219V88.0439C1044.15 87.7709 1043.96 87.5479 1043.72 87.5479H1036.93C1036.05 82.3409 1032.06 78.5739 1027.42 78.5739C1022.78 78.5739 1018.79 82.3409 1017.91 87.5479H1011.12C1010.88 87.5479 1010.69 87.7709 1010.69 88.0439V97.1219C1010.69 97.2109 1010.71 97.2939 1010.74 97.3649H1006.2C1005.96 97.3649 1005.77 97.5879 1005.77 97.8619V202.366C1005.77 202.639 1005.96 202.862 1006.2 202.862H1001.27V73.7729C1001.27 73.4939 1001.07 73.2659 1000.84 73.2659H998.198V67.4239C998.198 67.2399 998.016 67.1079 997.767 67.1079H982.972V59.3989H981.148V67.1079H966.356C966.105 67.1079 965.922 67.2409 965.922 67.4239V73.2659H961.677C961.439 73.2659 961.246 73.4939 961.246 73.7729V202.863H955.764V86.1929H955.569L955.531 86.2049C937.519 98.5709 923.11 92.1679 914.64 113.901C914.371 114.59 914.152 115.294 913.96 116.005C913.92 116.123 913.877 116.23 913.837 116.349C913.475 117.417 913.293 118.543 913.293 119.672V119.981C913.252 120.537 913.22 121.092 913.22 121.65L913.215 202.862H904.85V120.252H910.545C910.786 120.252 910.983 120.023 910.983 119.741V116.331C910.983 116.05 910.787 115.821 910.545 115.821H862.137C861.896 115.821 861.699 116.05 861.699 116.331V119.741C861.699 120.022 861.895 120.252 862.137 120.252H867.831V202.862H859.929V141.436H851.121C851.058 136.696 846.733 132.857 841.428 132.857C836.12 132.857 831.796 136.696 831.734 141.436H826.973C826.616 141.386 826.247 141.359 825.875 141.362C824.913 141.369 824.117 140.808 824.023 140.054C823.563 136.376 820.716 133.607 816.767 132.994C815.792 132.843 814.781 132.826 813.765 132.943C811.177 133.241 808.651 134.393 806.654 136.185C805.956 136.811 804.757 136.971 803.987 136.532C803.211 136.09 802.336 135.792 801.389 135.644C800.602 135.523 799.789 135.508 798.972 135.602C795.355 136.02 792.185 138.427 791.081 141.59C790.982 141.872 790.901 142.173 790.835 142.506C789.951 142.379 789.036 142.369 788.112 142.476C783.359 143.025 778.928 146.594 777.337 151.156C776.163 154.523 776.704 157.937 778.783 160.292C779.052 160.596 779.163 160.98 779.096 161.372C778.83 162.971 779.166 164.558 780.043 165.843C781.068 167.347 782.746 168.348 784.767 168.66C785.055 168.705 785.355 168.735 785.658 168.75C786.38 168.784 786.979 169.088 787.262 169.562C788.54 171.712 790.745 173.13 793.469 173.552C794.446 173.703 795.455 173.721 796.473 173.603C797.581 173.475 798.676 173.183 799.725 172.757C799.945 172.907 800.148 173.049 800.329 173.18C800.456 173.272 800.581 173.365 800.714 173.467C801.398 173.938 802.01 174.537 802.532 175.25C802.628 175.381 802.723 175.52 802.817 175.662L802.841 175.692C802.979 175.841 803.11 175.995 803.232 176.149L803.256 176.175C803.388 176.297 803.507 176.427 803.623 176.575C803.862 176.846 804.059 177.141 804.208 177.453C804.278 177.599 804.34 177.752 804.391 177.905C804.906 179.579 804.813 181.296 804.713 183.114L804.71 183.156C804.711 183.328 804.709 183.499 804.705 183.671C804.681 184.717 804.576 185.758 804.396 186.763C804.326 187.132 804.21 187.506 804.099 187.867C803.789 188.882 803.468 189.932 804.003 191.075C804.183 191.483 804.181 191.966 804.158 192.477C804.007 192.88 803.919 193.304 803.919 193.743C803.919 194.008 803.956 194.265 804.012 194.517C803.454 194.328 802.85 194.22 802.213 194.22C802.134 194.22 802.056 194.227 801.977 194.231C801.912 194.229 801.848 194.22 801.781 194.22C799.031 194.22 796.802 196.155 796.802 198.539C796.802 200.925 799.031 202.859 801.781 202.859H777.19L777.671 207.261H1194.86V202.859H1172.03V202.862ZM1174.19 176.955C1174.28 176.49 1174.37 176.009 1174.38 175.602C1174.4 175.493 1174.41 175.383 1174.43 175.274C1175.54 175.537 1176.7 175.543 1177.86 175.31C1177.79 175.385 1177.73 175.466 1177.66 175.57C1177.43 176.008 1177.17 176.42 1176.9 176.793C1176.8 176.919 1176.71 177.041 1176.62 177.154C1176.45 177.338 1176.27 177.552 1176.09 177.774C1175.59 178.394 1175.01 179.087 1174.55 179.142C1174.49 179.132 1174.44 179.117 1174.39 179.084C1173.85 178.777 1174.01 177.893 1174.19 176.955ZM1171.02 176.432C1171.68 175.941 1172.3 175.375 1172.86 174.723C1173.05 174.813 1173.24 174.893 1173.43 174.969C1173.38 175.184 1173.33 175.398 1173.3 175.62C1173.27 175.785 1173.25 175.953 1173.23 176.121C1173.22 176.309 1173.21 176.522 1173.21 176.744C1173.2 177.54 1173.19 178.428 1172.52 178.607C1172.46 178.574 1172.39 178.528 1172.32 178.461C1172.25 178.403 1172.19 178.335 1172.15 178.28C1171.81 177.675 1171.43 177.043 1171.02 176.432ZM805.77 172.756C805.866 173.933 805.849 174.725 804.8 174.963C804.67 174.946 804.518 174.894 804.359 174.807C804.266 174.757 804.173 174.696 804.088 174.63C803.432 173.913 802.682 173.169 801.91 172.472C801.777 172.361 801.639 172.251 801.501 172.148C801.432 172.096 801.365 172.052 801.296 172.003C802.102 171.545 802.865 171.006 803.563 170.384C803.893 170.09 804.339 169.897 804.816 169.841C805.248 169.792 805.671 169.859 806.039 170.018C805.922 170.479 805.827 170.948 805.777 171.431C805.756 171.635 805.741 171.833 805.733 172.028C805.729 172.253 805.748 172.497 805.77 172.756ZM807.573 175.156C806.83 174.935 806.895 174.15 807.09 172.883C807.174 172.34 807.261 171.777 807.223 171.279C807.244 171.122 807.263 170.965 807.286 170.807C808.278 171.392 809.396 171.789 810.631 171.98C810.887 172.02 811.146 172.048 811.405 172.071C811.404 172.073 811.402 172.075 811.4 172.077C811.279 172.229 811.147 172.386 811.017 172.534C810.78 172.774 810.54 173.047 810.287 173.334C809.488 174.24 808.583 175.267 807.778 175.197C807.711 175.192 807.644 175.179 807.573 175.156ZM822.928 185.08C822.477 185.033 822.014 185.004 821.539 185.004C821.464 185.004 821.391 185.01 821.315 185.011C821.246 185.01 821.177 185.004 821.106 185.004C817.022 185.004 813.644 186.817 812.964 189.193C812.318 189.039 811.634 188.948 810.917 188.948C810.845 188.948 810.774 188.955 810.703 188.957C810.629 188.955 810.557 188.948 810.483 188.948C810.004 188.948 809.539 188.988 809.088 189.059C808.94 188.231 808.797 187.335 808.655 186.321C808.629 186.133 808.602 185.943 808.577 185.755L808.568 185.714C808.257 184.7 808.185 183.638 808.117 182.61C808.087 182.151 808.054 181.675 808.001 181.206C807.977 181.017 807.952 180.826 807.927 180.636C807.902 180.447 807.876 180.256 807.849 180.068C807.825 179.879 807.821 179.725 807.837 179.588L807.84 179.572L807.839 179.556C807.84 179.415 807.845 179.28 807.857 179.15C807.921 178.411 808.169 177.769 808.623 177.174C808.739 176.998 808.856 176.837 808.979 176.685C809.416 176.154 809.926 175.669 810.467 175.157C810.979 174.673 811.507 174.172 811.955 173.637L812.316 173.258C812.659 172.896 813.026 172.505 813.375 172.109C813.396 172.089 813.417 172.068 813.438 172.047C813.501 172.041 813.563 172.039 813.626 172.031C815.521 171.812 817.404 171.129 819.075 170.056C819.609 169.713 820.285 169.567 820.898 169.661C821.556 169.764 822.237 169.792 822.926 169.751V185.08H822.928ZM841.43 135.699C844.241 135.699 846.644 137.72 847.188 140.524H835.672C836.216 137.721 838.618 135.699 841.43 135.699ZM831.972 189.427C831.964 189.426 831.955 189.426 831.949 189.426C831.186 189.426 830.458 189.525 829.781 189.695C829.622 188.369 828.631 187.186 827.127 186.34V168.661C828.936 167.822 830.601 166.542 831.973 164.966V189.427H831.972ZM837.912 191.641C836.933 190.449 835.153 189.605 833.066 189.453V163.558C833.805 162.479 834.415 161.3 834.851 160.05C836.271 155.978 835.563 151.893 833.066 149.42V146.146H837.912V191.641ZM843.852 192.986H839.006V146.145H843.852V192.986ZM849.792 192.986H844.947V146.145H849.792V192.986ZM855.733 192.986H850.886V146.145H855.733V192.986ZM878.119 173.768H871.008V173.182H871.533V168.316C871.533 166.093 872.892 164.285 874.563 164.285C876.235 164.285 877.593 166.094 877.593 168.316V173.182H878.118V173.768H878.119ZM878.119 155.194H871.008V154.608H871.533V149.741C871.533 147.518 872.892 145.71 874.563 145.71C876.235 145.71 877.593 147.519 877.593 149.741V154.608H878.118V155.194H878.119ZM878.119 136.62H871.008V136.034H871.533V131.167C871.533 128.944 872.892 127.137 874.563 127.137C876.235 127.137 877.593 128.945 877.593 131.167V136.034H878.118V136.62H878.119ZM889.898 173.768H882.786V173.182H883.312V168.316C883.312 166.093 884.671 164.285 886.342 164.285C888.013 164.285 889.371 166.094 889.371 168.316V173.182H889.897V173.768H889.898ZM889.898 155.194H882.786V154.608H883.312V149.741C883.312 147.518 884.671 145.71 886.342 145.71C888.013 145.71 889.371 147.519 889.371 149.741V154.608H889.897V155.194H889.898ZM889.898 136.62H882.786V136.034H883.312V131.167C883.312 128.944 884.671 127.137 886.342 127.137C888.013 127.137 889.371 128.945 889.371 131.167V136.034H889.897V136.62H889.898ZM901.679 173.768H894.566V173.182H895.091V168.316C895.091 166.093 896.45 164.285 898.122 164.285C899.793 164.285 901.152 166.094 901.152 168.316V173.182H901.678V173.768H901.679ZM901.679 155.194H894.566V154.608H895.091V149.741C895.091 147.518 896.45 145.71 898.122 145.71C899.793 145.71 901.152 147.519 901.152 149.741V154.608H901.678V155.194H901.679ZM901.679 136.62H894.566V136.034H895.091V131.167C895.091 128.944 896.45 127.137 898.122 127.137C899.793 127.137 901.152 128.945 901.152 131.167V136.034H901.678V136.62H901.679ZM950.288 184.379H919.261V177.693H950.288V184.379ZM950.288 172.978H919.261V166.292H950.288V172.978ZM950.288 161.576H919.261V154.891H950.288V161.576ZM950.288 150.175H919.261V143.489H950.288V150.175ZM950.288 138.774H919.261V132.089H950.288V138.774ZM950.288 127.373H919.261V120.687H950.288V127.373ZM974.157 69.1509H989.967V71.4819H974.157V69.1509ZM997.176 181.514H965.339V176.591H997.176V181.514ZM997.176 170.829H965.339V165.907H997.176V170.829ZM997.176 160.146H965.339V155.224H997.176V160.146ZM997.176 149.462H965.339V144.539H997.176V149.462ZM997.176 138.777H965.339V133.855H997.176V138.777ZM997.176 128.094H965.339V123.172H997.176V128.094ZM997.176 117.41H965.339V112.488H997.176V117.41ZM997.176 106.726H965.339V101.804H997.176V106.726ZM997.176 96.0429H965.339V91.1199H997.176V96.0429ZM997.176 85.3589H965.339V80.4369H997.176V85.3589ZM1027.42 81.5749C1030.53 81.5749 1033.2 84.0779 1033.82 87.5479H1021.02C1021.64 84.0779 1024.31 81.5749 1027.42 81.5749ZM1018.19 90.9159H1036.65V95.4869H1018.19V90.9159ZM1019.54 178.164C1019.54 178.618 1019.22 178.987 1018.82 178.987H1011.76C1011.36 178.987 1011.04 178.618 1011.04 178.164V174.402C1011.04 173.948 1011.36 173.579 1011.76 173.579H1018.82C1019.22 173.579 1019.54 173.948 1019.54 174.402V178.164ZM1019.54 166.94C1019.54 167.394 1019.22 167.764 1018.82 167.764H1011.76C1011.36 167.764 1011.04 167.394 1011.04 166.94V163.177C1011.04 162.723 1011.36 162.353 1011.76 162.353H1018.82C1019.22 162.353 1019.54 162.723 1019.54 163.177V166.94ZM1019.54 155.715C1019.54 156.169 1019.22 156.538 1018.82 156.538H1011.76C1011.36 156.538 1011.04 156.169 1011.04 155.715V151.952C1011.04 151.498 1011.36 151.128 1011.76 151.128H1018.82C1019.22 151.128 1019.54 151.498 1019.54 151.952V155.715ZM1019.54 144.488C1019.54 144.943 1019.22 145.312 1018.82 145.312H1011.76C1011.36 145.312 1011.04 144.943 1011.04 144.488V140.727C1011.04 140.273 1011.36 139.903 1011.76 139.903H1018.82C1019.22 139.903 1019.54 140.273 1019.54 140.727V144.488ZM1019.54 133.265C1019.54 133.718 1019.22 134.088 1018.82 134.088H1011.76C1011.36 134.088 1011.04 133.718 1011.04 133.265V129.502C1011.04 129.048 1011.36 128.679 1011.76 128.679H1018.82C1019.22 128.679 1019.54 129.048 1019.54 129.502V133.265ZM1019.54 122.04C1019.54 122.494 1019.22 122.862 1018.82 122.862H1011.76C1011.36 122.862 1011.04 122.494 1011.04 122.04V118.276C1011.04 117.823 1011.36 117.453 1011.76 117.453H1018.82C1019.22 117.453 1019.54 117.823 1019.54 118.276V122.04ZM1019.54 110.815C1019.54 111.269 1019.22 111.638 1018.82 111.638H1011.76C1011.36 111.638 1011.04 111.269 1011.04 110.815V107.053C1011.04 106.598 1011.36 106.229 1011.76 106.229H1018.82C1019.22 106.229 1019.54 106.598 1019.54 107.053V110.815ZM1029.73 178.987H1025.11V106.191H1029.73V178.987ZM1043.8 178.164C1043.8 178.618 1043.48 178.987 1043.08 178.987H1036.02C1035.62 178.987 1035.3 178.618 1035.3 178.164V174.402C1035.3 173.948 1035.62 173.579 1036.02 173.579H1043.08C1043.48 173.579 1043.8 173.948 1043.8 174.402V178.164ZM1043.8 166.94C1043.8 167.394 1043.48 167.764 1043.08 167.764H1036.02C1035.62 167.764 1035.3 167.394 1035.3 166.94V163.177C1035.3 162.723 1035.62 162.353 1036.02 162.353H1043.08C1043.48 162.353 1043.8 162.723 1043.8 163.177V166.94ZM1043.8 155.715C1043.8 156.169 1043.48 156.538 1043.08 156.538H1036.02C1035.62 156.538 1035.3 156.169 1035.3 155.715V151.952C1035.3 151.498 1035.62 151.128 1036.02 151.128H1043.08C1043.48 151.128 1043.8 151.498 1043.8 151.952V155.715ZM1043.8 144.488C1043.8 144.943 1043.48 145.312 1043.08 145.312H1036.02C1035.62 145.312 1035.3 144.943 1035.3 144.488V140.727C1035.3 140.273 1035.62 139.903 1036.02 139.903H1043.08C1043.48 139.903 1043.8 140.273 1043.8 140.727V144.488ZM1043.8 133.265C1043.8 133.718 1043.48 134.088 1043.08 134.088H1036.02C1035.62 134.088 1035.3 133.718 1035.3 133.265V129.502C1035.3 129.048 1035.62 128.679 1036.02 128.679H1043.08C1043.48 128.679 1043.8 129.048 1043.8 129.502V133.265ZM1043.8 122.04C1043.8 122.494 1043.48 122.862 1043.08 122.862H1036.02C1035.62 122.862 1035.3 122.494 1035.3 122.04V118.276C1035.3 117.823 1035.62 117.453 1036.02 117.453H1043.08C1043.48 117.453 1043.8 117.823 1043.8 118.276V122.04ZM1043.8 110.815C1043.8 111.269 1043.48 111.638 1043.08 111.638H1036.02C1035.62 111.638 1035.3 111.269 1035.3 110.815V107.053C1035.3 106.598 1035.62 106.229 1036.02 106.229H1043.08C1043.48 106.229 1043.8 106.598 1043.8 107.053V110.815ZM1090.73 188.638H1059.7V183.5H1090.73V188.638ZM1090.73 179.866H1059.7V174.728H1090.73V179.866ZM1090.73 171.096H1059.7V165.958H1090.73V171.096ZM1090.73 162.325H1059.7V157.186H1090.73V162.325ZM1090.73 153.554H1059.7V148.416H1090.73V153.554ZM1090.73 144.783H1059.7V139.644H1090.73V144.783ZM1117.55 183.786H1110.4V183.431H1110.93V180.231C1110.93 178.783 1112.3 177.606 1113.98 177.606C1115.66 177.606 1117.03 178.783 1117.03 180.231V183.431H1117.55V183.786ZM1117.55 171.626H1110.4V171.27H1110.93V168.07C1110.93 166.623 1112.3 165.445 1113.98 165.445C1115.66 165.445 1117.03 166.623 1117.03 168.07V171.27H1117.55V171.626ZM1117.55 159.465H1110.4V159.109H1110.93V155.909C1110.93 154.462 1112.3 153.284 1113.98 153.284C1115.66 153.284 1117.03 154.462 1117.03 155.909V159.109H1117.55V159.465ZM1129.33 183.786H1122.18V183.431H1122.71V180.231C1122.71 178.783 1124.08 177.606 1125.76 177.606C1127.44 177.606 1128.8 178.783 1128.8 180.231V183.431H1129.33V183.786ZM1129.33 171.626H1122.18V171.27H1122.71V168.07C1122.71 166.623 1124.08 165.445 1125.76 165.445C1127.44 165.445 1128.8 166.623 1128.8 168.07V171.27H1129.33V171.626ZM1129.33 159.465H1122.18V159.109H1122.71V155.909C1122.71 154.462 1124.08 153.284 1125.76 153.284C1127.44 153.284 1128.8 154.462 1128.8 155.909V159.109H1129.33V159.465ZM1141.11 183.786H1133.96V183.431H1134.49V180.231C1134.49 178.783 1135.85 177.606 1137.54 177.606C1139.22 177.606 1140.58 178.783 1140.58 180.231V183.431H1141.11V183.786ZM1141.11 171.626H1133.96V171.27H1134.49V168.07C1134.49 166.623 1135.85 165.445 1137.54 165.445C1139.22 165.445 1140.58 166.623 1140.58 168.07V171.27H1141.11V171.626ZM1141.11 159.465H1133.96V159.109H1134.49V155.909C1134.49 154.462 1135.85 153.284 1137.54 153.284C1139.22 153.284 1140.58 154.462 1140.58 155.909V159.109H1141.11V159.465ZM1171.9 202.862C1171.91 202.862 1171.92 202.855 1171.92 202.855H1171.96L1171.97 202.862H1171.9Z" fill="white"/>
<path d="M484.057 203.123V74.0327C484.057 73.9187 484.018 73.8177 483.963 73.7327V68.3427H480.986V67.6837C480.986 67.6617 480.975 67.6427 480.97 67.6217V61.0217H474.988V54.6387H453.488V61.3957H446.944V69.2797H443.953V74.4947H444.035V203.123H439.994V207.525H485.264V203.123H484.057ZM454.931 181.775H448.126V176.852H454.931V181.775ZM454.931 171.09H448.126V166.168H454.931V171.09ZM454.931 160.406H448.126V155.484H454.931V160.406ZM454.931 149.723H448.126V144.8H454.931V149.723ZM454.931 139.038H448.126V134.116H454.931V139.038ZM454.931 128.355H448.126V123.433H454.931V128.355ZM454.931 117.671H448.126V112.749H454.931V117.671ZM454.931 106.986H448.126V102.064H454.931V106.986ZM454.931 96.3037H448.126V91.3807H454.931V96.3037ZM454.931 85.6187H448.126V80.6967H454.931V85.6187ZM467.931 181.775H458.598V176.852H467.931V181.775ZM467.931 171.09H458.598V166.168H467.931V171.09ZM467.931 160.406H458.598V155.484H467.931V160.406ZM467.931 149.723H458.598V144.8H467.931V149.723ZM467.931 139.038H458.598V134.116H467.931V139.038ZM467.931 128.355H458.598V123.433H467.931V128.355ZM467.931 117.671H458.598V112.749H467.931V117.671ZM467.931 106.986H458.598V102.064H467.931V106.986ZM467.931 96.3037H458.598V91.3807H467.931V96.3037ZM467.931 85.6187H458.598V80.6967H467.931V85.6187ZM479.963 181.775H471.598V176.852H479.963V181.775ZM479.963 171.09H471.598V166.168H479.963V171.09ZM479.963 160.406H471.598V155.484H479.963V160.406ZM479.963 149.723H471.598V144.8H479.963V149.723ZM479.963 139.038H471.598V134.116H479.963V139.038ZM479.963 128.355H471.598V123.433H479.963V128.355ZM479.963 117.671H471.598V112.749H479.963V117.671ZM479.963 106.986H471.598V102.064H479.963V106.986ZM479.963 96.3037H471.598V91.3807H479.963V96.3037ZM479.963 85.6187H471.598V80.6967H479.963V85.6187Z" fill="white"/>
<path d="M735.25 202.033H774.676V72.2148L735.446 92.7689L735.25 202.033ZM764.463 91.6228L769.08 89.3328V195.796H764.463V91.6228ZM755.963 93.9568L760.58 91.6668V195.796H755.963V93.9568ZM747.463 96.2918L752.08 94.0018V195.796H747.463V96.2918ZM739.463 98.6259L744.08 96.3358V195.796H739.463V98.6259Z" fill="white"/>
<path d="M532.591 93.772L490.047 115.146V121.769L490.042 202.981H488.19V207.383H534.857V202.981H532.59V93.772H532.591ZM527.113 184.497H496.086V177.811H527.113V184.497ZM527.113 173.096H496.086V166.41H527.113V173.096ZM527.113 161.694H496.086V155.009H527.113V161.694ZM527.113 150.293H496.086V143.607H527.113V150.293ZM527.113 138.892H496.086V132.207H527.113V138.892ZM527.113 127.491H496.086V120.805H527.113V127.491Z" fill="white"/>
<path d="M723.871 67.9828V63.0727H720.496C717.808 47.1347 705.556 42.1567 705.556 42.1567C692.845 47.0727 689.767 62.9887 689.767 62.9887H685.891V68.4148L682.434 68.6567V77.4908V208.011H728.677V76.4107V67.9477L723.871 67.9828ZM687.331 79.2177H695.618V84.6267H687.331V79.2177ZM687.326 90.0357H695.613V95.4447H687.326V90.0357ZM687.32 122.491H695.607V127.9H687.32V122.491ZM687.315 133.31H695.602V138.719H687.315V133.31ZM687.305 165.765H695.592V171.174H687.305V165.765ZM695.599 192.811H687.312V187.402H695.599V192.811ZM695.604 181.992H687.317V176.583H695.604V181.992ZM695.609 160.356H687.322V154.947H695.609V160.356ZM695.614 149.537H687.327V144.128H695.614V149.537ZM695.62 117.082H687.333V111.673H695.62V117.082ZM695.625 106.264H687.338V100.855H695.625V106.264ZM701.402 79.2177H709.689V84.6267H701.402V79.2177ZM701.397 90.0357H709.684V95.4447H701.397V90.0357ZM701.392 122.491H709.679V127.9H701.392V122.491ZM701.387 133.31H709.674V138.719H701.387V133.31ZM701.376 165.765H709.663V171.174H701.376V165.765ZM709.67 192.811H701.383V187.402H709.67V192.811ZM709.675 181.992H701.388V176.583H709.675V181.992ZM709.681 160.356H701.394V154.947H709.681V160.356ZM709.686 149.537H701.399V144.128H709.686V149.537ZM709.691 117.082H701.404V111.673H709.691V117.082ZM709.696 106.264H701.409V100.855H709.696V106.264ZM715.475 79.2177H723.762V84.6267H715.475V79.2177ZM715.47 90.0357H723.757V95.4447H715.47V90.0357ZM715.464 122.491H723.751V127.9H715.464V122.491ZM715.459 133.31H723.746V138.719H715.459V133.31ZM715.448 165.765H723.735V171.174H715.448V165.765ZM723.742 192.811H715.455V187.402H723.742V192.811ZM723.747 181.992H715.46V176.583H723.747V181.992ZM723.753 160.356H715.466V154.947H723.753V160.356ZM723.758 149.537H715.471V144.128H723.758V149.537ZM723.764 117.082H715.477V111.673H723.764V117.082ZM723.769 106.264H715.482V100.855H723.769V106.264Z" fill="white"/>
<path d="M540.369 60.6738V69.4929V197.723V200.013V207.99H586.613V200.013V197.723V68.4128V60.6738H540.369ZM559.324 173.995V168.586H567.611V173.995H559.324ZM567.605 179.404V184.813H559.318V179.404H567.605ZM559.333 141.54V136.131H567.62V141.54H559.333ZM567.617 146.949V152.358H559.33V146.949H567.617ZM559.345 98.2668V92.8578H567.632V98.2668H559.345ZM567.626 103.676V109.085H559.339V103.676H567.626ZM559.337 71.2208H567.624V76.6298H559.337V71.2208ZM559.333 82.0388H567.62V87.4478H559.333V82.0388ZM559.328 114.494H567.615V119.903H559.328V114.494ZM559.322 125.313H567.609V130.722H559.322V125.313ZM559.312 157.768H567.599V163.177H559.312V157.768ZM545.251 173.995V168.586H553.538V173.995H545.251ZM553.535 179.404V184.813H545.248V179.404H553.535ZM545.263 141.54V136.131H553.55V141.54H545.263ZM553.544 146.949V152.358H545.257V146.949H553.544ZM545.273 98.2668V92.8578H553.56V98.2668H545.273ZM553.556 103.676V109.085H545.269V103.676H553.556ZM545.267 71.2208H553.554V76.6298H545.267V71.2208ZM545.261 82.0388H553.548V87.4478H545.261V82.0388ZM545.255 114.494H553.542V119.903H545.255V114.494ZM545.251 125.313H553.538V130.722H545.251V125.313ZM545.24 157.768H553.527V163.177H545.24V157.768Z" fill="white"/>
<path d="M338.357 202.487V113.727L303.778 131.099V136.482L303.775 202.487H302.27V206.065H340.198V202.487H338.357ZM308.687 135.699H319.359V141.134H308.687V135.699ZM308.687 144.966H319.359V150.4H308.687V144.966ZM308.687 154.232H319.359V159.666H308.687V154.232ZM308.687 163.499H319.359V168.932H308.687V163.499ZM308.687 172.765H319.359V178.199H308.687V172.765ZM308.687 182.031H319.359V187.465H308.687V182.031ZM333.904 187.465H323.111V182.031H333.904V187.465ZM333.904 178.198H323.111V172.764H333.904V178.198ZM333.904 168.932H323.111V163.499H333.904V168.932ZM333.904 159.665H323.111V154.231H333.904V159.665ZM333.904 150.4H323.111V144.966H333.904V150.4ZM333.904 141.134H323.111V135.699H333.904V141.134Z" fill="white"/>
<path d="M344.904 145.107V202.523H393.307V145.107H344.904ZM357.088 200.353H352.498V191.423H357.088V200.353ZM357.088 186.361H352.498V177.431H357.088V186.361ZM357.088 172.367H352.498V163.437H357.088V172.367ZM357.088 158.626H352.498V149.195H357.088V158.626ZM365.601 200.353H361.011V191.423H365.601V200.353ZM365.601 186.361H361.011V177.431H365.601V186.361ZM365.601 172.367H361.011V163.437H365.601V172.367ZM365.601 158.626H361.011V149.195H365.601V158.626ZM374.113 200.353H369.523V191.423H374.113V200.353ZM374.113 186.361H369.523V177.431H374.113V186.361ZM374.113 172.367H369.523V163.437H374.113V172.367ZM374.113 158.626H369.523V149.195H374.113V158.626ZM382.625 200.353H378.035V191.423H382.625V200.353ZM382.625 186.361H378.035V177.431H382.625V186.361ZM382.625 172.367H378.035V163.437H382.625V172.367ZM382.625 158.626H378.035V149.195H382.625V158.626Z" fill="white"/>
<path d="M674.348 204.165V75.0747C674.348 74.9607 674.309 74.8597 674.254 74.7747V69.3847H671.278V68.7257C671.278 68.7037 671.267 68.6847 671.262 68.6637V62.0637H665.28V55.6807H643.78V62.4377H637.236V70.3217H634.245V75.5367H634.327V204.164H630.286V208.566H675.555V204.164H674.348V204.165ZM645.223 182.817H638.418V177.894H645.223V182.817ZM645.223 172.132H638.418V167.21H645.223V172.132ZM645.223 161.448H638.418V156.526H645.223V161.448ZM645.223 150.765H638.418V145.842H645.223V150.765ZM645.223 140.08H638.418V135.158H645.223V140.08ZM645.223 129.397H638.418V124.475H645.223V129.397ZM645.223 118.713H638.418V113.791H645.223V118.713ZM645.223 108.028H638.418V103.106H645.223V108.028ZM645.223 97.3457H638.418V92.4227H645.223V97.3457ZM645.223 86.6607H638.418V81.7387H645.223V86.6607ZM658.223 182.817H648.89V177.894H658.223V182.817ZM658.223 172.132H648.89V167.21H658.223V172.132ZM658.223 161.448H648.89V156.526H658.223V161.448ZM658.223 150.765H648.89V145.842H658.223V150.765ZM658.223 140.08H648.89V135.158H658.223V140.08ZM658.223 129.397H648.89V124.475H658.223V129.397ZM658.223 118.713H648.89V113.791H658.223V118.713ZM658.223 108.028H648.89V103.106H658.223V108.028ZM658.223 97.3457H648.89V92.4227H658.223V97.3457ZM658.223 86.6607H648.89V81.7387H658.223V86.6607ZM670.255 182.817H661.89V177.894H670.255V182.817ZM670.255 172.132H661.89V167.21H670.255V172.132ZM670.255 161.448H661.89V156.526H670.255V161.448ZM670.255 150.765H661.89V145.842H670.255V150.765ZM670.255 140.08H661.89V135.158H670.255V140.08ZM670.255 129.397H661.89V124.475H670.255V129.397ZM670.255 118.713H661.89V113.791H670.255V118.713ZM670.255 108.028H661.89V103.106H670.255V108.028ZM670.255 97.3457H661.89V92.4227H670.255V97.3457ZM670.255 86.6607H661.89V81.7387H670.255V86.6607Z" fill="white"/>
<path d="M637.342 203.924H603.161C603.171 203.924 603.181 203.916 603.19 203.914H625.874C628.316 203.914 630.305 202.551 630.305 200.876C630.305 199.325 628.643 198.047 626.415 197.863C626.424 197.789 626.428 197.717 626.428 197.648C626.428 195.973 624.256 194.61 621.587 194.61C620.969 194.61 620.367 194.682 619.793 194.827C619.483 193.024 616.792 191.635 613.547 191.635C610.51 191.635 607.955 192.829 607.385 194.494C607.194 194.446 606.996 194.419 606.801 194.388C606.767 194.183 606.735 193.975 606.698 193.773C606.533 192.851 606.376 191.98 606.481 191.026C606.48 190.816 606.481 190.606 606.484 190.396L606.5 189.117L606.456 188.386C606.392 187.373 606.342 186.268 606.3 185.01L606.278 184.316C606.089 183.072 606.116 181.812 606.143 180.593C606.154 180.043 606.167 179.497 606.16 178.949L606.123 177.598C606.117 177.361 606.127 177.168 606.158 176.977C606.17 176.815 606.187 176.652 606.209 176.492C606.332 175.608 606.61 174.87 607.067 174.225C607.179 174.041 607.298 173.865 607.425 173.694C607.853 173.13 608.343 172.632 608.861 172.106C609.348 171.611 609.853 171.097 610.29 170.535L610.637 170.141C610.986 169.745 611.332 169.347 611.662 168.942C611.802 168.79 611.943 168.637 612.084 168.488C612.369 168.189 612.659 167.896 612.951 167.619C613.105 167.482 613.264 167.351 613.425 167.226C614.306 166.552 615.192 166.166 616.105 166.047H616.122C616.2 166.048 616.278 166.05 616.356 166.05H616.449C616.45 166.05 616.45 166.05 616.451 166.05C616.479 166.05 616.506 166.05 616.533 166.05H616.627C616.83 166.045 616.996 166.024 617.148 165.981C617.282 165.98 617.521 165.954 617.699 165.842C618.558 166.944 619.68 167.723 620.992 168.085C621.544 168.238 622.12 168.315 622.706 168.315C626.594 168.315 630.575 164.906 632.172 160.209C633.277 156.963 633.091 153.566 631.675 151.122C630.766 149.554 629.427 148.489 627.805 148.042C626.887 147.787 625.9 147.746 624.904 147.917C625.731 143.977 624.319 140.36 621.5 139.181C621.581 138.98 621.658 138.775 621.728 138.566C622.675 135.781 622.522 132.878 621.318 130.799C620.559 129.488 619.443 128.6 618.091 128.228C617.632 128.101 617.152 128.038 616.666 128.038C614.314 128.038 611.904 129.488 610.19 131.927C609.715 131.688 609.215 131.494 608.703 131.353C607.983 131.155 607.229 131.053 606.461 131.053C602.062 131.053 597.155 134.333 593.318 139.833C589.748 139.437 585.953 140.844 583.166 143.583C579.961 143.757 576.909 146.292 575.725 149.778C574.9 152.2 575.077 154.712 576.208 156.664C577.037 158.096 578.288 159.076 579.824 159.5C581.057 159.841 582.399 159.783 583.699 159.339C583.711 164.841 586.814 169.369 591.481 170.656C592.377 170.904 593.31 171.029 594.254 171.029C596.413 171.029 598.567 170.381 600.535 169.207C600.971 169.775 601.359 170.432 601.686 171.175C601.761 171.347 601.834 171.523 601.914 171.723C602.023 171.916 602.125 172.116 602.233 172.336C602.341 172.502 602.438 172.676 602.525 172.861C602.717 173.218 602.868 173.6 602.976 173.996C603.028 174.188 603.069 174.382 603.101 174.572C603.416 176.625 603.187 178.631 602.941 180.796C602.926 180.996 602.91 181.196 602.892 181.398C602.781 182.627 602.6 183.837 602.356 184.992C602.261 185.422 602.128 185.848 601.999 186.259C601.651 187.374 601.291 188.526 601.646 189.874C601.797 190.482 601.722 191.151 601.643 191.86C601.602 192.217 601.561 192.587 601.55 192.953L601.519 193.559C601.485 194.182 601.448 194.688 601.404 195.145C601.386 195.323 601.368 195.497 601.348 195.666C601.329 195.785 601.321 195.907 601.307 196.028C600.906 196.511 600.656 197.059 600.656 197.65C600.656 197.773 600.672 197.896 600.691 198.019C600.672 198.031 600.657 198.039 600.638 198.05C600.633 198.053 600.628 198.056 600.623 198.06C600.173 197.917 599.701 197.84 599.213 197.84C597.098 197.84 595.377 199.203 595.377 200.877C595.377 202.552 597.099 203.915 599.213 203.915H602.88L602.89 203.925H587.323L590.385 209.85H637.341V203.924H637.342ZM606.064 169.063C606.184 168.439 606.308 167.791 606.31 167.245C606.335 167.098 606.361 166.949 606.387 166.802C607.874 167.156 609.441 167.163 610.999 166.853C610.907 166.954 610.816 167.063 610.722 167.201C610.416 167.792 610.073 168.345 609.701 168.847C609.576 169.018 609.447 169.182 609.323 169.334C609.096 169.58 608.861 169.87 608.617 170.167C607.934 171.002 607.167 171.936 606.538 172.009C606.466 171.996 606.394 171.975 606.323 171.932C605.597 171.517 605.824 170.324 606.064 169.063ZM601.802 168.358C602.682 167.699 603.516 166.938 604.275 166.06C604.523 166.181 604.778 166.289 605.035 166.39C604.972 166.68 604.906 166.967 604.86 167.267C604.826 167.491 604.797 167.715 604.774 167.942C604.752 168.194 604.749 168.481 604.745 168.78C604.734 169.851 604.711 171.047 603.823 171.286C603.736 171.244 603.642 171.182 603.542 171.09C603.459 171.013 603.376 170.921 603.317 170.849C602.865 170.03 602.343 169.181 601.802 168.358ZM602.983 203.924C602.992 203.924 603.002 203.916 603.012 203.914H603.06L603.07 203.924H602.983Z" fill="white"/>
<path d="M394.805 120.659H400.499V203.269H392.666V207.671H445.452V203.269H437.517V120.659H443.212C443.453 120.659 443.65 120.43 443.65 120.148V116.738C443.65 116.457 443.454 116.228 443.212 116.228H394.804C394.563 116.228 394.366 116.457 394.366 116.738V120.148C394.368 120.43 394.564 120.659 394.805 120.659ZM427.232 136.442H427.757V131.575C427.757 129.352 429.116 127.545 430.788 127.545C432.459 127.545 433.818 129.353 433.818 131.575V136.442H434.344V137.028H427.231V136.442H427.232ZM427.232 155.016H427.757V150.149C427.757 147.926 429.116 146.118 430.788 146.118C432.459 146.118 433.818 147.927 433.818 150.149V155.016H434.344V155.602H427.231V155.016H427.232ZM427.232 173.589H427.757V168.723C427.757 166.5 429.116 164.692 430.788 164.692C432.459 164.692 433.818 166.501 433.818 168.723V173.589H434.344V174.175H427.231V173.589H427.232ZM415.453 136.442H415.979V131.575C415.979 129.352 417.338 127.545 419.009 127.545C420.68 127.545 422.038 129.353 422.038 131.575V136.442H422.564V137.028H415.452V136.442H415.453ZM415.453 155.016H415.979V150.149C415.979 147.926 417.338 146.118 419.009 146.118C420.68 146.118 422.038 147.927 422.038 150.149V155.016H422.564V155.602H415.452V155.016H415.453ZM415.453 173.589H415.979V168.723C415.979 166.5 417.338 164.692 419.009 164.692C420.68 164.692 422.038 166.501 422.038 168.723V173.589H422.564V174.175H415.452V173.589H415.453ZM403.674 136.442H404.199V131.575C404.199 129.352 405.558 127.545 407.229 127.545C408.901 127.545 410.259 129.353 410.259 131.575V136.442H410.784V137.028H403.673V136.442H403.674ZM403.674 155.016H404.199V150.149C404.199 147.926 405.558 146.118 407.229 146.118C408.901 146.118 410.259 147.927 410.259 150.149V155.016H410.784V155.602H403.673V155.016H403.674ZM403.674 173.589H404.199V168.723C404.199 166.5 405.558 164.692 407.229 164.692C408.901 164.692 410.259 166.501 410.259 168.723V173.589H410.784V174.175H403.673V173.589H403.674Z" fill="white"/>
<path d="M254.021 151.355V159.73H246.146V202.73H297.271V174.855V159.73V151.355H254.021ZM270.271 198.98H252.896V196.417H270.271V198.98ZM270.271 194.176H252.896V191.613H270.271V194.176ZM270.271 189.372H252.896V186.809H270.271V189.372ZM270.271 184.569H252.896V182.006H270.271V184.569ZM270.271 179.765H252.896V177.202H270.271V179.765ZM270.271 174.962H252.896V172.399H270.271V174.962ZM270.271 170.158H252.896V167.595H270.271V170.158ZM270.271 165.355H252.896V162.792H270.271V165.355ZM293.021 198.859H275.646V196.296H293.021V198.859ZM293.021 194.056H275.646V191.493H293.021V194.056ZM293.021 189.252H275.646V186.689H293.021V189.252ZM293.021 184.448H275.646V181.885H293.021V184.448ZM293.021 179.645H275.646V177.082H293.021V179.645ZM293.021 174.841H275.646V172.278H293.021V174.841ZM293.021 170.038H275.646V167.475H293.021V170.038ZM293.021 165.234H275.646V162.671H293.021V165.234Z" fill="white"/>
<path d="M156.524 202.655C156.531 202.655 156.539 202.648 156.545 202.648H173.402C175.217 202.648 176.694 201.634 176.694 200.39C176.694 199.236 175.46 198.286 173.804 198.15C173.811 198.095 173.814 198.043 173.814 197.991C173.814 196.747 172.2 195.734 170.216 195.734C169.757 195.734 169.309 195.787 168.883 195.895C168.652 194.555 166.652 193.523 164.24 193.523C161.982 193.523 160.084 194.41 159.661 195.646C159.518 195.612 159.372 195.59 159.226 195.568C159.201 195.415 159.176 195.261 159.15 195.111C159.027 194.424 158.912 193.778 158.99 193.068C158.988 192.913 158.99 192.757 158.991 192.601L159.004 191.65L158.971 191.106C158.923 190.353 158.886 189.533 158.855 188.597L158.839 188.081C158.697 187.155 158.718 186.22 158.738 185.314C158.746 184.906 158.755 184.499 158.75 184.092L158.723 183.089C158.718 182.912 158.726 182.769 158.748 182.627C158.758 182.506 158.77 182.385 158.786 182.266C158.878 181.611 159.085 181.062 159.424 180.582C159.508 180.445 159.596 180.313 159.691 180.187C160.009 179.767 160.373 179.398 160.757 179.006C161.119 178.638 161.494 178.257 161.82 177.838L162.079 177.546C162.338 177.252 162.595 176.956 162.84 176.654C162.944 176.541 163.049 176.427 163.153 176.317C163.365 176.094 163.581 175.877 163.798 175.67C163.913 175.569 164.03 175.472 164.151 175.38C164.805 174.879 165.464 174.593 166.142 174.503L166.156 174.504C166.214 174.504 166.271 174.506 166.329 174.506L166.398 174.505C166.399 174.505 166.399 174.505 166.4 174.505C166.421 174.505 166.441 174.506 166.461 174.506L166.531 174.505C166.681 174.502 166.805 174.485 166.919 174.454C167.019 174.453 167.195 174.433 167.328 174.35C167.968 175.168 168.801 175.748 169.776 176.018C170.186 176.131 170.615 176.189 171.049 176.189C171.05 176.189 171.049 176.189 171.05 176.189C173.939 176.189 176.898 173.656 178.084 170.165C178.905 167.753 178.767 165.227 177.715 163.411C177.04 162.247 176.045 161.455 174.839 161.122C174.157 160.934 173.424 160.903 172.683 161.029C173.297 158.101 172.249 155.414 170.155 154.538C170.215 154.388 170.272 154.235 170.324 154.081C171.028 152.011 170.914 149.853 170.019 148.31C169.455 147.335 168.624 146.675 167.621 146.397C167.28 146.304 166.923 146.255 166.561 146.255C164.813 146.255 163.022 147.333 161.748 149.147C161.395 148.968 161.024 148.825 160.644 148.72C160.109 148.572 159.548 148.496 158.978 148.496C155.707 148.496 152.063 150.934 149.21 155.021C146.557 154.727 143.737 155.772 141.665 157.808C139.284 157.938 137.016 159.821 136.135 162.411C135.523 164.213 135.654 166.078 136.495 167.53C137.11 168.593 138.04 169.323 139.182 169.637C140.098 169.889 141.095 169.848 142.061 169.516C142.07 173.606 144.375 176.972 147.845 177.928C148.51 178.112 149.203 178.205 149.906 178.205C151.511 178.205 153.111 177.723 154.574 176.85C154.897 177.273 155.186 177.761 155.429 178.313C155.485 178.442 155.539 178.572 155.598 178.72C155.679 178.864 155.755 179.011 155.835 179.176C155.916 179.299 155.987 179.428 156.053 179.566C156.195 179.833 156.307 180.116 156.387 180.411C156.427 180.553 156.457 180.696 156.481 180.839C156.715 182.363 156.544 183.855 156.363 185.463C156.351 185.612 156.34 185.762 156.326 185.911C156.244 186.824 156.109 187.723 155.928 188.581C155.858 188.901 155.759 189.218 155.663 189.522C155.404 190.35 155.137 191.207 155.401 192.209C155.512 192.662 155.457 193.159 155.398 193.685C155.368 193.952 155.337 194.226 155.329 194.498L155.306 194.949C155.281 195.412 155.253 195.788 155.221 196.128C155.207 196.259 155.194 196.39 155.18 196.515C155.165 196.604 155.159 196.695 155.149 196.784C154.851 197.143 154.665 197.551 154.665 197.99C154.665 198.082 154.678 198.173 154.692 198.263C154.677 198.272 154.667 198.279 154.651 198.287C154.648 198.29 154.644 198.292 154.641 198.294C154.306 198.189 153.955 198.131 153.593 198.131C152.021 198.131 150.741 199.144 150.741 200.389C150.741 201.633 152.02 202.647 153.593 202.647H156.319L156.326 202.654H128.738V148.567H134.451C134.682 148.567 134.87 148.411 134.87 148.219V145.988C134.87 145.796 134.682 145.639 134.451 145.639H86.0428C85.8119 145.639 85.6238 145.795 85.6238 145.988V148.219C85.6238 148.41 85.8119 148.567 86.0428 148.567H91.7548V202.654H81.2598V137.389L81.2538 137.36C73.0298 116.868 58.0038 127.69 38.9428 117.624L38.7148 117.615V202.654H33.1248C33.3639 202.654 33.5578 202.431 33.5578 202.158V97.6549C33.5578 97.3809 33.3648 97.1579 33.1248 97.1579H28.5838C28.6188 97.0869 28.6398 97.0039 28.6398 96.9149V87.8369C28.6398 87.5639 28.4459 87.3409 28.2068 87.3409H21.4198C20.5328 82.1339 16.5479 78.3669 11.9068 78.3669C7.26685 78.3669 3.28084 82.1339 2.39484 87.3409H-4.39017C-4.62917 87.3409 -4.82317 87.5639 -4.82317 87.8369V96.9149C-4.82317 97.0039 -4.80316 97.0869 -4.76717 97.1579H-9.30916C-9.54716 97.1579 -9.74117 97.3809 -9.74117 97.6549V202.159C-9.74117 202.432 -9.54816 202.655 -9.30916 202.655H-14.2412V73.5649C-14.2412 73.2859 -14.4362 73.0579 -14.6752 73.0579H-17.3122V67.2159C-17.3122 67.0319 -17.4942 66.8999 -17.7432 66.8999H-32.5382V59.1909H-34.3622V66.8999H-49.1542C-49.4052 66.8999 -49.5882 67.0329 -49.5882 67.2159V73.0579H-53.8332C-54.0712 73.0579 -54.2642 73.2859 -54.2642 73.5649V202.655H-59.7462V85.9859H-59.9412L-59.9792 85.9979C-77.9911 98.3639 -92.4002 91.9609 -100.87 113.694C-101.139 114.383 -101.358 115.087 -101.55 115.798C-101.59 115.916 -101.633 116.023 -101.673 116.142C-102.035 117.21 -102.217 118.336 -102.217 119.465V119.774C-102.258 120.33 -102.29 120.885 -102.29 121.443L-102.295 202.655H-110.66V120.045H-104.965C-104.724 120.045 -104.527 119.816 -104.527 119.534V116.124C-104.527 115.843 -104.723 115.614 -104.965 115.614H-153.373C-153.614 115.614 -153.811 115.843 -153.811 116.124V119.534C-153.811 119.815 -153.615 120.045 -153.373 120.045H-147.679V202.655H-155.581V141.229H-164.389C-164.452 136.489 -168.777 132.65 -174.082 132.65C-179.39 132.65 -183.714 136.489 -183.776 141.229H-188.537C-188.894 141.179 -189.263 141.152 -189.635 141.155C-190.597 141.162 -191.393 140.601 -191.487 139.847C-191.947 136.169 -194.794 133.4 -198.743 132.787C-199.718 132.636 -200.729 132.619 -201.745 132.736C-204.333 133.034 -206.859 134.186 -208.856 135.978C-209.554 136.604 -210.753 136.764 -211.523 136.325C-212.299 135.883 -213.174 135.585 -214.121 135.437C-214.908 135.316 -215.721 135.301 -216.538 135.395C-220.155 135.813 -223.325 138.22 -224.429 141.383C-224.528 141.665 -224.609 141.966 -224.675 142.299C-225.559 142.172 -226.474 142.162 -227.398 142.269C-232.151 142.818 -236.582 146.387 -238.173 150.949C-239.347 154.316 -238.806 157.73 -236.727 160.085C-236.458 160.389 -236.347 160.773 -236.414 161.165C-236.68 162.764 -236.344 164.351 -235.467 165.636C-234.442 167.14 -232.764 168.141 -230.743 168.453C-230.455 168.498 -230.155 168.528 -229.852 168.543C-229.13 168.577 -228.531 168.881 -228.248 169.355C-226.97 171.505 -224.765 172.923 -222.041 173.345C-221.064 173.496 -220.055 173.514 -219.037 173.396C-217.929 173.268 -216.834 172.976 -215.785 172.55C-215.565 172.7 -215.362 172.842 -215.181 172.973C-215.054 173.065 -214.929 173.158 -214.796 173.26C-214.112 173.731 -213.5 174.33 -212.978 175.043C-212.882 175.174 -212.787 175.313 -212.693 175.455L-212.669 175.485C-212.531 175.634 -212.4 175.788 -212.278 175.942L-212.254 175.968C-212.122 176.09 -212.003 176.22 -211.887 176.368C-211.648 176.639 -211.451 176.934 -211.302 177.246C-211.232 177.392 -211.17 177.545 -211.119 177.698C-210.604 179.372 -210.697 181.089 -210.797 182.907L-210.8 182.949C-210.799 183.121 -210.801 183.292 -210.805 183.464C-210.829 184.51 -210.934 185.551 -211.114 186.556C-211.184 186.925 -211.3 187.299 -211.411 187.66C-211.721 188.675 -212.042 189.725 -211.507 190.868C-211.327 191.276 -211.329 191.759 -211.352 192.27C-211.503 192.673 -211.591 193.097 -211.591 193.536C-211.591 193.801 -211.554 194.058 -211.498 194.31C-212.056 194.121 -212.66 194.013 -213.297 194.013C-213.376 194.013 -213.454 194.02 -213.533 194.024C-213.598 194.022 -213.662 194.013 -213.729 194.013C-216.479 194.013 -218.708 195.948 -218.708 198.332C-218.708 200.718 -216.479 202.652 -213.729 202.652H-238.323L-237.842 207.054H179.343V202.652H156.524V202.655ZM158.682 176.748C158.772 176.283 158.863 175.802 158.866 175.395C158.885 175.286 158.903 175.176 158.924 175.067C160.028 175.33 161.193 175.336 162.351 175.103C162.283 175.178 162.215 175.259 162.145 175.363C161.917 175.801 161.664 176.213 161.387 176.586C161.294 176.712 161.198 176.834 161.106 176.947C160.938 177.131 160.762 177.345 160.582 177.567C160.075 178.187 159.504 178.88 159.037 178.935C158.983 178.925 158.93 178.91 158.877 178.877C158.334 178.57 158.503 177.686 158.682 176.748ZM155.514 176.225C156.168 175.734 156.787 175.168 157.352 174.516C157.536 174.606 157.725 174.686 157.916 174.762C157.87 174.977 157.819 175.191 157.786 175.413C157.761 175.578 157.739 175.746 157.722 175.914C157.706 176.102 157.703 176.315 157.701 176.537C157.692 177.333 157.675 178.221 157.014 178.4C156.95 178.367 156.88 178.321 156.806 178.254C156.744 178.196 156.683 178.128 156.639 178.073C156.304 177.468 155.917 176.836 155.514 176.225ZM-209.741 172.549C-209.645 173.726 -209.662 174.518 -210.711 174.756C-210.841 174.739 -210.993 174.687 -211.152 174.6C-211.245 174.55 -211.338 174.489 -211.423 174.423C-212.079 173.706 -212.829 172.962 -213.601 172.265C-213.734 172.154 -213.872 172.044 -214.01 171.941C-214.079 171.889 -214.146 171.845 -214.215 171.796C-213.409 171.338 -212.646 170.799 -211.948 170.177C-211.618 169.883 -211.172 169.69 -210.695 169.634C-210.263 169.585 -209.84 169.652 -209.472 169.811C-209.589 170.272 -209.684 170.741 -209.734 171.224C-209.755 171.428 -209.77 171.626 -209.778 171.821C-209.782 172.046 -209.762 172.29 -209.741 172.549ZM-207.937 174.949C-208.68 174.728 -208.615 173.943 -208.42 172.676C-208.336 172.133 -208.249 171.57 -208.287 171.072C-208.266 170.915 -208.247 170.758 -208.224 170.6C-207.232 171.185 -206.114 171.582 -204.879 171.773C-204.623 171.813 -204.364 171.841 -204.105 171.864C-204.106 171.866 -204.108 171.868 -204.11 171.87C-204.231 172.022 -204.363 172.179 -204.493 172.327C-204.73 172.567 -204.97 172.84 -205.223 173.127C-206.022 174.033 -206.927 175.06 -207.732 174.99C-207.799 174.985 -207.867 174.972 -207.937 174.949ZM-192.583 184.873C-193.034 184.826 -193.497 184.797 -193.972 184.797C-194.047 184.797 -194.12 184.803 -194.196 184.804C-194.265 184.803 -194.334 184.797 -194.405 184.797C-198.489 184.797 -201.867 186.61 -202.547 188.986C-203.193 188.832 -203.877 188.741 -204.594 188.741C-204.666 188.741 -204.737 188.748 -204.808 188.75C-204.882 188.748 -204.954 188.741 -205.028 188.741C-205.507 188.741 -205.972 188.781 -206.423 188.852C-206.571 188.024 -206.714 187.128 -206.856 186.114C-206.882 185.926 -206.909 185.736 -206.934 185.548L-206.943 185.507C-207.254 184.493 -207.326 183.431 -207.394 182.403C-207.424 181.944 -207.457 181.468 -207.51 180.999C-207.534 180.81 -207.559 180.619 -207.584 180.429C-207.609 180.24 -207.635 180.049 -207.662 179.861C-207.686 179.672 -207.69 179.518 -207.674 179.381L-207.671 179.365L-207.672 179.349C-207.671 179.208 -207.666 179.073 -207.654 178.943C-207.59 178.204 -207.342 177.562 -206.888 176.967C-206.772 176.791 -206.655 176.63 -206.532 176.478C-206.095 175.947 -205.585 175.462 -205.044 174.95C-204.532 174.466 -204.004 173.965 -203.556 173.43L-203.195 173.051C-202.852 172.689 -202.485 172.298 -202.136 171.902C-202.115 171.882 -202.094 171.861 -202.073 171.84C-202.01 171.834 -201.948 171.832 -201.885 171.824C-199.99 171.605 -198.107 170.922 -196.436 169.849C-195.902 169.506 -195.226 169.36 -194.613 169.454C-193.955 169.557 -193.274 169.585 -192.585 169.544V184.873H-192.583ZM-174.081 135.492C-171.27 135.492 -168.867 137.513 -168.323 140.317H-179.839C-179.294 137.514 -176.892 135.492 -174.081 135.492ZM-183.539 189.22C-183.547 189.219 -183.556 189.219 -183.562 189.219C-184.325 189.219 -185.053 189.318 -185.73 189.488C-185.889 188.162 -186.88 186.979 -188.384 186.133V168.453C-186.575 167.614 -184.91 166.334 -183.538 164.758V189.22H-183.539ZM-177.598 191.434C-178.577 190.242 -180.357 189.398 -182.444 189.246V163.351C-181.705 162.272 -181.095 161.093 -180.659 159.843C-179.239 155.771 -179.947 151.686 -182.444 149.213V145.939H-177.598V191.434ZM-171.659 192.779H-176.505V145.938H-171.659V192.779ZM-165.718 192.779H-170.563V145.938H-165.718V192.779ZM-159.777 192.779H-164.624V145.938H-159.777V192.779ZM-137.391 173.561H-144.502V172.975H-143.977V168.109C-143.977 165.886 -142.618 164.078 -140.947 164.078C-139.275 164.078 -137.917 165.887 -137.917 168.109V172.975H-137.392V173.561H-137.391ZM-137.391 154.987H-144.502V154.401H-143.977V149.534C-143.977 147.311 -142.618 145.503 -140.947 145.503C-139.275 145.503 -137.917 147.312 -137.917 149.534V154.401H-137.392V154.987H-137.391ZM-137.391 136.413H-144.502V135.827H-143.977V130.96C-143.977 128.737 -142.618 126.93 -140.947 126.93C-139.275 126.93 -137.917 128.738 -137.917 130.96V135.827H-137.392V136.413H-137.391ZM-125.612 173.561H-132.724V172.975H-132.198V168.109C-132.198 165.886 -130.839 164.078 -129.168 164.078C-127.497 164.078 -126.139 165.887 -126.139 168.109V172.975H-125.613V173.561H-125.612ZM-125.612 154.987H-132.724V154.401H-132.198V149.534C-132.198 147.311 -130.839 145.503 -129.168 145.503C-127.497 145.503 -126.139 147.312 -126.139 149.534V154.401H-125.613V154.987H-125.612ZM-125.612 136.413H-132.724V135.827H-132.198V130.96C-132.198 128.737 -130.839 126.93 -129.168 126.93C-127.497 126.93 -126.139 128.738 -126.139 130.96V135.827H-125.613V136.413H-125.612ZM-113.832 173.561H-120.945V172.975H-120.42V168.109C-120.42 165.886 -119.061 164.078 -117.389 164.078C-115.718 164.078 -114.359 165.887 -114.359 168.109V172.975H-113.833V173.561H-113.832ZM-113.832 154.987H-120.945V154.401H-120.42V149.534C-120.42 147.311 -119.061 145.503 -117.389 145.503C-115.718 145.503 -114.359 147.312 -114.359 149.534V154.401H-113.833V154.987H-113.832ZM-113.832 136.413H-120.945V135.827H-120.42V130.96C-120.42 128.737 -119.061 126.93 -117.389 126.93C-115.718 126.93 -114.359 128.738 -114.359 130.96V135.827H-113.833V136.413H-113.832ZM-65.2222 184.172H-96.2502V177.486H-65.2232V184.172H-65.2222ZM-65.2222 172.771H-96.2502V166.085H-65.2232V172.771H-65.2222ZM-65.2222 161.369H-96.2502V154.684H-65.2232V161.369H-65.2222ZM-65.2222 149.968H-96.2502V143.282H-65.2232V149.968H-65.2222ZM-65.2222 138.567H-96.2502V131.882H-65.2232V138.567H-65.2222ZM-65.2222 127.166H-96.2502V120.48H-65.2232V127.166H-65.2222ZM-41.3532 68.9429H-25.5432V71.2739H-41.3532V68.9429ZM-18.3342 181.307H-50.1712V176.384H-18.3342V181.307ZM-18.3342 170.622H-50.1712V165.7H-18.3342V170.622ZM-18.3342 159.939H-50.1712V155.017H-18.3342V159.939ZM-18.3342 149.255H-50.1712V144.332H-18.3342V149.255ZM-18.3342 138.57H-50.1712V133.648H-18.3342V138.57ZM-18.3342 127.887H-50.1712V122.965H-18.3342V127.887ZM-18.3342 117.203H-50.1712V112.281H-18.3342V117.203ZM-18.3342 106.519H-50.1712V101.597H-18.3342V106.519ZM-18.3342 95.8359H-50.1712V90.9129H-18.3342V95.8359ZM-18.3342 85.1509H-50.1712V80.2289H-18.3342V85.1509ZM11.9088 81.368C15.0148 81.368 17.6859 83.8709 18.3109 87.3409H5.50684C6.13184 83.8709 8.80284 81.368 11.9088 81.368ZM2.67484 90.7089H21.1418V95.2799H2.67484V90.7089ZM4.02783 177.957C4.02783 178.411 3.70584 178.78 3.30884 178.78H-3.75217C-4.14816 178.78 -4.47116 178.411 -4.47116 177.957V174.195C-4.47116 173.741 -4.14917 173.372 -3.75217 173.372H3.30884C3.70483 173.372 4.02783 173.741 4.02783 174.195V177.957ZM4.02783 166.733C4.02783 167.187 3.70584 167.557 3.30884 167.557H-3.75217C-4.14816 167.557 -4.47116 167.187 -4.47116 166.733V162.97C-4.47116 162.516 -4.14917 162.146 -3.75217 162.146H3.30884C3.70483 162.146 4.02783 162.516 4.02783 162.97V166.733ZM4.02783 155.508C4.02783 155.962 3.70584 156.331 3.30884 156.331H-3.75217C-4.14816 156.331 -4.47116 155.962 -4.47116 155.508V151.745C-4.47116 151.291 -4.14917 150.921 -3.75217 150.921H3.30884C3.70483 150.921 4.02783 151.291 4.02783 151.745V155.508ZM4.02783 144.281C4.02783 144.736 3.70584 145.105 3.30884 145.105H-3.75217C-4.14816 145.105 -4.47116 144.736 -4.47116 144.281V140.52C-4.47116 140.066 -4.14917 139.696 -3.75217 139.696H3.30884C3.70483 139.696 4.02783 140.066 4.02783 140.52V144.281ZM4.02783 133.058C4.02783 133.511 3.70584 133.881 3.30884 133.881H-3.75217C-4.14816 133.881 -4.47116 133.511 -4.47116 133.058V129.295C-4.47116 128.841 -4.14917 128.472 -3.75217 128.472H3.30884C3.70483 128.472 4.02783 128.841 4.02783 129.295V133.058ZM4.02783 121.833C4.02783 122.287 3.70584 122.655 3.30884 122.655H-3.75217C-4.14816 122.655 -4.47116 122.287 -4.47116 121.833V118.069C-4.47116 117.616 -4.14917 117.246 -3.75217 117.246H3.30884C3.70483 117.246 4.02783 117.616 4.02783 118.069V121.833ZM4.02783 110.608C4.02783 111.062 3.70584 111.431 3.30884 111.431H-3.75217C-4.14816 111.431 -4.47116 111.062 -4.47116 110.608V106.846C-4.47116 106.391 -4.14917 106.022 -3.75217 106.022H3.30884C3.70483 106.022 4.02783 106.391 4.02783 106.846V110.608ZM14.2168 178.78H9.60085V105.984H14.2168V178.78ZM28.2878 177.957C28.2878 178.411 27.9658 178.78 27.5698 178.78H20.5078C20.1118 178.78 19.7888 178.411 19.7888 177.957V174.195C19.7888 173.741 20.1108 173.372 20.5078 173.372H27.5698C27.9658 173.372 28.2878 173.741 28.2878 174.195V177.957ZM28.2878 166.733C28.2878 167.187 27.9658 167.557 27.5698 167.557H20.5078C20.1118 167.557 19.7888 167.187 19.7888 166.733V162.97C19.7888 162.516 20.1108 162.146 20.5078 162.146H27.5698C27.9658 162.146 28.2878 162.516 28.2878 162.97V166.733ZM28.2878 155.508C28.2878 155.962 27.9658 156.331 27.5698 156.331H20.5078C20.1118 156.331 19.7888 155.962 19.7888 155.508V151.745C19.7888 151.291 20.1108 150.921 20.5078 150.921H27.5698C27.9658 150.921 28.2878 151.291 28.2878 151.745V155.508ZM28.2878 144.281C28.2878 144.736 27.9658 145.105 27.5698 145.105H20.5078C20.1118 145.105 19.7888 144.736 19.7888 144.281V140.52C19.7888 140.066 20.1108 139.696 20.5078 139.696H27.5698C27.9658 139.696 28.2878 140.066 28.2878 140.52V144.281ZM28.2878 133.058C28.2878 133.511 27.9658 133.881 27.5698 133.881H20.5078C20.1118 133.881 19.7888 133.511 19.7888 133.058V129.295C19.7888 128.841 20.1108 128.472 20.5078 128.472H27.5698C27.9658 128.472 28.2878 128.841 28.2878 129.295V133.058ZM28.2878 121.833C28.2878 122.287 27.9658 122.655 27.5698 122.655H20.5078C20.1118 122.655 19.7888 122.287 19.7888 121.833V118.069C19.7888 117.616 20.1108 117.246 20.5078 117.246H27.5698C27.9658 117.246 28.2878 117.616 28.2878 118.069V121.833ZM28.2878 110.608C28.2878 111.062 27.9658 111.431 27.5698 111.431H20.5078C20.1118 111.431 19.7888 111.062 19.7888 110.608V106.846C19.7888 106.391 20.1108 106.022 20.5078 106.022H27.5698C27.9658 106.022 28.2878 106.391 28.2878 106.846V110.608ZM75.2218 188.431H44.1898V183.293H75.2218V188.431ZM75.2218 179.659H44.1898V174.521H75.2218V179.659ZM75.2218 170.889H44.1898V165.751H75.2218V170.889ZM75.2218 162.118H44.1898V156.979H75.2218V162.118ZM75.2218 153.347H44.1898V148.209H75.2218V153.347ZM75.2218 144.576H44.1898V139.437H75.2218V144.576ZM102.04 183.579H94.8928V183.224H95.4188V180.024C95.4188 178.576 96.7858 177.399 98.4668 177.399C100.148 177.399 101.515 178.576 101.515 180.024V183.224H102.04V183.579ZM102.04 171.419H94.8928V171.063H95.4188V167.863C95.4188 166.416 96.7858 165.238 98.4668 165.238C100.148 165.238 101.515 166.416 101.515 167.863V171.063H102.04V171.419ZM102.04 159.258H94.8928V158.902H95.4188V155.702C95.4188 154.255 96.7858 153.077 98.4668 153.077C100.148 153.077 101.515 154.255 101.515 155.702V158.902H102.04V159.258ZM113.819 183.579H106.672V183.224H107.198V180.024C107.198 178.576 108.565 177.399 110.246 177.399C111.927 177.399 113.294 178.576 113.294 180.024V183.224H113.819V183.579ZM113.819 171.419H106.672V171.063H107.198V167.863C107.198 166.416 108.565 165.238 110.246 165.238C111.927 165.238 113.294 166.416 113.294 167.863V171.063H113.819V171.419ZM113.819 159.258H106.672V158.902H107.198V155.702C107.198 154.255 108.565 153.077 110.246 153.077C111.927 153.077 113.294 154.255 113.294 155.702V158.902H113.819V159.258ZM125.598 183.579H118.451V183.224H118.977V180.024C118.977 178.576 120.343 177.399 122.025 177.399C123.705 177.399 125.072 178.576 125.072 180.024V183.224H125.598V183.579ZM125.598 171.419H118.451V171.063H118.977V167.863C118.977 166.416 120.343 165.238 122.025 165.238C123.705 165.238 125.072 166.416 125.072 167.863V171.063H125.598V171.419ZM125.598 159.258H118.451V158.902H118.977V155.702C118.977 154.255 120.343 153.077 122.025 153.077C123.705 153.077 125.072 154.255 125.072 155.702V158.902H125.598V159.258ZM156.393 202.655C156.4 202.655 156.407 202.648 156.414 202.648H156.45L156.458 202.655H156.393Z" fill="white"/>
<path d="M1619.09 202.568C1619.1 202.568 1619.11 202.561 1619.11 202.561H1635.97C1637.79 202.561 1639.26 201.547 1639.26 200.303C1639.26 199.149 1638.03 198.199 1636.37 198.063C1636.38 198.008 1636.38 197.956 1636.38 197.904C1636.38 196.66 1634.77 195.647 1632.78 195.647C1632.32 195.647 1631.88 195.7 1631.45 195.808C1631.22 194.468 1629.22 193.436 1626.81 193.436C1624.55 193.436 1622.65 194.323 1622.23 195.559C1622.09 195.525 1621.94 195.503 1621.79 195.481C1621.77 195.328 1621.74 195.174 1621.72 195.024C1621.6 194.337 1621.48 193.691 1621.56 192.981C1621.56 192.826 1621.56 192.67 1621.56 192.514L1621.57 191.563L1621.54 191.019C1621.49 190.266 1621.45 189.446 1621.42 188.51L1621.41 187.994C1621.27 187.068 1621.29 186.133 1621.31 185.227C1621.31 184.819 1621.32 184.412 1621.32 184.005L1621.29 183.002C1621.29 182.825 1621.29 182.682 1621.32 182.54C1621.33 182.419 1621.34 182.298 1621.35 182.179C1621.45 181.524 1621.65 180.975 1621.99 180.495C1622.08 180.358 1622.16 180.226 1622.26 180.1C1622.58 179.68 1622.94 179.311 1623.32 178.919C1623.69 178.551 1624.06 178.17 1624.39 177.751L1624.65 177.459C1624.91 177.165 1625.16 176.869 1625.41 176.567C1625.51 176.454 1625.62 176.34 1625.72 176.23C1625.93 176.007 1626.15 175.79 1626.37 175.583C1626.48 175.482 1626.6 175.385 1626.72 175.293C1627.37 174.792 1628.03 174.506 1628.71 174.416L1628.72 174.417C1628.78 174.417 1628.84 174.419 1628.9 174.419L1628.97 174.418C1628.97 174.418 1628.97 174.418 1628.97 174.418C1628.99 174.418 1629.01 174.419 1629.03 174.419L1629.1 174.418C1629.25 174.415 1629.37 174.398 1629.49 174.367C1629.59 174.366 1629.76 174.346 1629.9 174.263C1630.54 175.081 1631.37 175.661 1632.34 175.931C1632.75 176.044 1633.18 176.102 1633.62 176.102C1633.62 176.102 1633.62 176.102 1633.62 176.102C1636.51 176.102 1639.47 173.569 1640.65 170.078C1641.47 167.666 1641.34 165.14 1640.28 163.324C1639.61 162.16 1638.61 161.368 1637.41 161.035C1636.73 160.847 1635.99 160.816 1635.25 160.942C1635.86 158.014 1634.82 155.327 1632.72 154.451C1632.78 154.301 1632.84 154.148 1632.89 153.994C1633.6 151.924 1633.48 149.766 1632.59 148.223C1632.02 147.248 1631.19 146.588 1630.19 146.31C1629.85 146.217 1629.49 146.168 1629.13 146.168C1627.38 146.168 1625.59 147.246 1624.32 149.06C1623.96 148.881 1623.59 148.738 1623.21 148.633C1622.68 148.485 1622.12 148.409 1621.55 148.409C1618.27 148.409 1614.63 150.847 1611.78 154.934C1609.12 154.64 1606.3 155.685 1604.23 157.721C1601.85 157.851 1599.58 159.734 1598.7 162.324C1598.09 164.126 1598.22 165.991 1599.06 167.443C1599.68 168.506 1600.61 169.236 1601.75 169.55C1602.66 169.802 1603.66 169.761 1604.63 169.429C1604.64 173.519 1606.94 176.885 1610.41 177.841C1611.08 178.025 1611.77 178.118 1612.47 178.118C1614.08 178.118 1615.68 177.636 1617.14 176.763C1617.46 177.186 1617.75 177.674 1618 178.226C1618.05 178.355 1618.11 178.485 1618.16 178.633C1618.25 178.777 1618.32 178.924 1618.4 179.089C1618.48 179.212 1618.55 179.341 1618.62 179.479C1618.76 179.746 1618.87 180.029 1618.95 180.324C1618.99 180.466 1619.02 180.609 1619.05 180.752C1619.28 182.276 1619.11 183.768 1618.93 185.376C1618.92 185.525 1618.91 185.675 1618.89 185.824C1618.81 186.737 1618.68 187.636 1618.5 188.494C1618.43 188.814 1618.33 189.131 1618.23 189.435C1617.97 190.263 1617.7 191.12 1617.97 192.122C1618.08 192.575 1618.02 193.072 1617.97 193.598C1617.93 193.865 1617.9 194.139 1617.9 194.411L1617.87 194.862C1617.85 195.325 1617.82 195.701 1617.79 196.041C1617.77 196.172 1617.76 196.303 1617.75 196.428C1617.73 196.517 1617.73 196.608 1617.72 196.697C1617.42 197.056 1617.23 197.464 1617.23 197.903C1617.23 197.995 1617.24 198.086 1617.26 198.176C1617.24 198.185 1617.23 198.192 1617.22 198.2C1617.21 198.203 1617.21 198.205 1617.21 198.207C1616.87 198.102 1616.52 198.044 1616.16 198.044C1614.59 198.044 1613.31 199.057 1613.31 200.302C1613.31 201.546 1614.59 202.56 1616.16 202.56H1618.89L1618.89 202.567H1591.3V148.48H1597.02C1597.25 148.48 1597.44 148.324 1597.44 148.132V145.901C1597.44 145.709 1597.25 145.552 1597.02 145.552H1548.61C1548.38 145.552 1548.19 145.708 1548.19 145.901V148.132C1548.19 148.323 1548.38 148.48 1548.61 148.48H1554.32V202.567H1543.83V137.302L1543.82 137.273C1535.6 116.781 1520.57 127.603 1501.51 117.537L1501.28 117.528V202.567H1495.69C1495.93 202.567 1496.13 202.344 1496.13 202.071V97.568C1496.13 97.294 1495.93 97.071 1495.69 97.071H1491.15C1491.19 97 1491.21 96.917 1491.21 96.828V87.75C1491.21 87.477 1491.02 87.254 1490.78 87.254H1483.99C1483.1 82.047 1479.12 78.28 1474.48 78.28C1469.84 78.28 1465.85 82.047 1464.96 87.254H1458.18C1457.94 87.254 1457.74 87.477 1457.74 87.75V96.828C1457.74 96.917 1457.76 97 1457.8 97.071H1453.26C1453.02 97.071 1452.83 97.294 1452.83 97.568V202.072C1452.83 202.345 1453.02 202.568 1453.26 202.568H1448.33V73.478C1448.33 73.199 1448.13 72.971 1447.89 72.971H1445.26V67.129C1445.26 66.945 1445.07 66.813 1444.82 66.813H1430.03V59.104H1428.2V66.813H1413.41C1413.16 66.813 1412.98 66.946 1412.98 67.129V72.971H1408.73C1408.5 72.971 1408.3 73.199 1408.3 73.478V202.568H1404.32V206.97H1641.91V202.568H1619.09ZM1621.25 176.661C1621.34 176.196 1621.43 175.715 1621.43 175.308C1621.45 175.199 1621.47 175.089 1621.49 174.98C1622.6 175.243 1623.76 175.249 1624.92 175.016C1624.85 175.091 1624.78 175.172 1624.71 175.276C1624.48 175.714 1624.23 176.126 1623.96 176.499C1623.86 176.625 1623.77 176.747 1623.67 176.86C1623.51 177.044 1623.33 177.258 1623.15 177.48C1622.64 178.1 1622.07 178.793 1621.6 178.848C1621.55 178.838 1621.5 178.823 1621.44 178.79C1620.9 178.484 1621.07 177.599 1621.25 176.661ZM1618.08 176.138C1618.74 175.647 1619.35 175.081 1619.92 174.429C1620.1 174.519 1620.29 174.599 1620.48 174.675C1620.44 174.89 1620.39 175.104 1620.35 175.326C1620.33 175.491 1620.31 175.659 1620.29 175.827C1620.27 176.015 1620.27 176.228 1620.27 176.45C1620.26 177.246 1620.24 178.134 1619.58 178.313C1619.52 178.28 1619.45 178.234 1619.37 178.167C1619.31 178.109 1619.25 178.041 1619.21 177.986C1618.87 177.381 1618.48 176.749 1618.08 176.138ZM1421.21 68.857H1437.03V71.188H1421.21V68.857ZM1444.23 181.22H1412.4V176.297H1444.23V181.22ZM1444.23 170.535H1412.4V165.613H1444.23V170.535ZM1444.23 159.852H1412.4V154.93H1444.23V159.852ZM1444.23 149.168H1412.4V144.245H1444.23V149.168ZM1444.23 138.484H1412.4V133.562H1444.23V138.484ZM1444.23 127.8H1412.4V122.878H1444.23V127.8ZM1444.23 117.116H1412.4V112.194H1444.23V117.116ZM1444.23 106.432H1412.4V101.51H1444.23V106.432ZM1444.23 95.749H1412.4V90.826H1444.23V95.749ZM1444.23 85.065H1412.4V80.143H1444.23V85.065ZM1474.48 81.281C1477.58 81.281 1480.25 83.784 1480.88 87.254H1468.08C1468.7 83.784 1471.37 81.281 1474.48 81.281ZM1465.24 90.622H1483.71V95.193H1465.24V90.622ZM1466.6 177.87C1466.6 178.324 1466.27 178.693 1465.88 178.693H1458.82C1458.42 178.693 1458.1 178.324 1458.1 177.87V174.108C1458.1 173.654 1458.42 173.285 1458.82 173.285H1465.88C1466.27 173.285 1466.6 173.654 1466.6 174.108V177.87ZM1466.6 166.646C1466.6 167.1 1466.27 167.47 1465.88 167.47H1458.82C1458.42 167.47 1458.1 167.1 1458.1 166.646V162.883C1458.1 162.429 1458.42 162.059 1458.82 162.059H1465.88C1466.27 162.059 1466.6 162.429 1466.6 162.883V166.646ZM1466.6 155.421C1466.6 155.875 1466.27 156.244 1465.88 156.244H1458.82C1458.42 156.244 1458.1 155.875 1458.1 155.421V151.658C1458.1 151.204 1458.42 150.834 1458.82 150.834H1465.88C1466.27 150.834 1466.6 151.204 1466.6 151.658V155.421ZM1466.6 144.194C1466.6 144.649 1466.27 145.018 1465.88 145.018H1458.82C1458.42 145.018 1458.1 144.649 1458.1 144.194V140.433C1458.1 139.979 1458.42 139.609 1458.82 139.609H1465.88C1466.27 139.609 1466.6 139.979 1466.6 140.433V144.194ZM1466.6 132.971C1466.6 133.424 1466.27 133.794 1465.88 133.794H1458.82C1458.42 133.794 1458.1 133.424 1458.1 132.971V129.208C1458.1 128.754 1458.42 128.385 1458.82 128.385H1465.88C1466.27 128.385 1466.6 128.754 1466.6 129.208V132.971ZM1466.6 121.746C1466.6 122.2 1466.27 122.568 1465.88 122.568H1458.82C1458.42 122.568 1458.1 122.2 1458.1 121.746V117.982C1458.1 117.529 1458.42 117.159 1458.82 117.159H1465.88C1466.27 117.159 1466.6 117.529 1466.6 117.982V121.746ZM1466.6 110.521C1466.6 110.975 1466.27 111.344 1465.88 111.344H1458.82C1458.42 111.344 1458.1 110.975 1458.1 110.521V106.759C1458.1 106.304 1458.42 105.935 1458.82 105.935H1465.88C1466.27 105.935 1466.6 106.304 1466.6 106.759V110.521ZM1476.78 178.693H1472.17V105.897H1476.78V178.693ZM1490.85 177.87C1490.85 178.324 1490.53 178.693 1490.14 178.693H1483.07C1482.68 178.693 1482.36 178.324 1482.36 177.87V174.108C1482.36 173.654 1482.68 173.285 1483.07 173.285H1490.14C1490.53 173.285 1490.85 173.654 1490.85 174.108V177.87ZM1490.85 166.646C1490.85 167.1 1490.53 167.47 1490.14 167.47H1483.07C1482.68 167.47 1482.36 167.1 1482.36 166.646V162.883C1482.36 162.429 1482.68 162.059 1483.07 162.059H1490.14C1490.53 162.059 1490.85 162.429 1490.85 162.883V166.646ZM1490.85 155.421C1490.85 155.875 1490.53 156.244 1490.14 156.244H1483.07C1482.68 156.244 1482.36 155.875 1482.36 155.421V151.658C1482.36 151.204 1482.68 150.834 1483.07 150.834H1490.14C1490.53 150.834 1490.85 151.204 1490.85 151.658V155.421ZM1490.85 144.194C1490.85 144.649 1490.53 145.018 1490.14 145.018H1483.07C1482.68 145.018 1482.36 144.649 1482.36 144.194V140.433C1482.36 139.979 1482.68 139.609 1483.07 139.609H1490.14C1490.53 139.609 1490.85 139.979 1490.85 140.433V144.194ZM1490.85 132.971C1490.85 133.424 1490.53 133.794 1490.14 133.794H1483.07C1482.68 133.794 1482.36 133.424 1482.36 132.971V129.208C1482.36 128.754 1482.68 128.385 1483.07 128.385H1490.14C1490.53 128.385 1490.85 128.754 1490.85 129.208V132.971ZM1490.85 121.746C1490.85 122.2 1490.53 122.568 1490.14 122.568H1483.07C1482.68 122.568 1482.36 122.2 1482.36 121.746V117.982C1482.36 117.529 1482.68 117.159 1483.07 117.159H1490.14C1490.53 117.159 1490.85 117.529 1490.85 117.982V121.746ZM1490.85 110.521C1490.85 110.975 1490.53 111.344 1490.14 111.344H1483.07C1482.68 111.344 1482.36 110.975 1482.36 110.521V106.759C1482.36 106.304 1482.68 105.935 1483.07 105.935H1490.14C1490.53 105.935 1490.85 106.304 1490.85 106.759V110.521ZM1537.79 188.344H1506.76V183.206H1537.79V188.344ZM1537.79 179.572H1506.76V174.434H1537.79V179.572ZM1537.79 170.802H1506.76V165.664H1537.79V170.802ZM1537.79 162.031H1506.76V156.892H1537.79V162.031ZM1537.79 153.26H1506.76V148.122H1537.79V153.26ZM1537.79 144.489H1506.76V139.35H1537.79V144.489ZM1564.61 183.492H1557.46V183.137H1557.99V179.937C1557.99 178.489 1559.35 177.312 1561.03 177.312C1562.71 177.312 1564.08 178.489 1564.08 179.937V183.137H1564.61V183.492ZM1564.61 171.332H1557.46V170.976H1557.99V167.776C1557.99 166.329 1559.35 165.151 1561.03 165.151C1562.71 165.151 1564.08 166.329 1564.08 167.776V170.976H1564.61V171.332ZM1564.61 159.171H1557.46V158.815H1557.99V155.615C1557.99 154.168 1559.35 152.99 1561.03 152.99C1562.71 152.99 1564.08 154.168 1564.08 155.615V158.815H1564.61V159.171ZM1576.39 183.492H1569.24V183.137H1569.77V179.937C1569.77 178.489 1571.13 177.312 1572.81 177.312C1574.49 177.312 1575.86 178.489 1575.86 179.937V183.137H1576.39V183.492ZM1576.39 171.332H1569.24V170.976H1569.77V167.776C1569.77 166.329 1571.13 165.151 1572.81 165.151C1574.49 165.151 1575.86 166.329 1575.86 167.776V170.976H1576.39V171.332ZM1576.39 159.171H1569.24V158.815H1569.77V155.615C1569.77 154.168 1571.13 152.99 1572.81 152.99C1574.49 152.99 1575.86 154.168 1575.86 155.615V158.815H1576.39V159.171ZM1588.17 183.492H1581.02V183.137H1581.54V179.937C1581.54 178.489 1582.91 177.312 1584.59 177.312C1586.27 177.312 1587.64 178.489 1587.64 179.937V183.137H1588.17V183.492ZM1588.17 171.332H1581.02V170.976H1581.54V167.776C1581.54 166.329 1582.91 165.151 1584.59 165.151C1586.27 165.151 1587.64 166.329 1587.64 167.776V170.976H1588.17V171.332ZM1588.17 159.171H1581.02V158.815H1581.54V155.615C1581.54 154.168 1582.91 152.99 1584.59 152.99C1586.27 152.99 1587.64 154.168 1587.64 155.615V158.815H1588.17V159.171ZM1618.96 202.568C1618.97 202.568 1618.97 202.561 1618.98 202.561H1619.02L1619.02 202.568H1618.96Z" fill="white"/>
<path d="M1746 202.73H-306V212.73H1746V202.73Z" fill="#E80000"/>
<g opacity="0.5">
<path opacity="0.5" d="M492.913 22.062C493.439 22.062 493.963 22 494.471 21.877C495.737 23.285 497.533 24.09 499.416 24.09C500.388 24.09 501.323 23.885 502.199 23.479C503.404 25.506 505.584 26.76 507.929 26.76C510.022 26.76 512.012 25.754 513.27 24.063C513.476 24.082 513.681 24.09 513.881 24.09C515.99 24.09 517.985 23.073 519.244 21.363C519.616 21.47 519.998 21.525 520.384 21.525C522.666 21.525 524.523 19.649 524.523 17.344C524.523 15.876 523.754 14.514 522.51 13.759C522.526 13.611 522.533 13.478 522.533 13.35C522.533 11.044 520.676 9.16901 518.394 9.16901C518.154 9.16901 517.908 9.19202 517.664 9.23602C516.754 6.46902 514.227 4.62402 511.327 4.62402C510.473 4.62402 509.642 4.78401 508.857 5.10101C507.62 3.15701 505.53 2 503.237 2C500.777 2 498.538 3.351 497.366 5.53C497.151 5.51 496.939 5.5 496.734 5.5C494.357 5.5 492.149 6.78702 490.955 8.86502C488.173 9.72702 486.236 12.368 486.236 15.315C486.234 19.035 489.23 22.062 492.913 22.062Z" stroke="white" stroke-width="3" stroke-miterlimit="10"/>
<path opacity="0.5" d="M744.874 22.9542C744.849 23.1102 744.836 23.2682 744.836 23.4232C744.836 25.3412 746.706 26.9022 749.004 26.9022C749.949 26.9022 750.864 26.6342 751.601 26.1442C753.622 27.9602 756.469 29.0012 759.442 29.0012C762.961 29.0012 766.232 27.5652 768.234 25.1552C768.703 25.4582 769.279 25.6222 769.879 25.6222C771.352 25.6222 772.549 24.6362 772.549 23.4232C772.549 23.3232 772.541 23.2222 772.525 23.1242C773.577 22.7432 774.492 22.1422 775.185 21.3742C775.56 21.4642 775.947 21.5112 776.338 21.5112C777.625 21.5112 778.848 21.0072 779.635 20.1592C779.858 20.2062 780.085 20.2312 780.317 20.2312C781.789 20.2312 782.986 19.2432 782.986 18.0312C782.986 16.8182 781.789 15.8302 780.317 15.8302C780.086 15.8302 779.858 15.8552 779.635 15.9022C778.848 15.0542 777.625 14.5502 776.338 14.5502C775.946 14.5502 775.56 14.5972 775.185 14.6872C773.969 13.3452 772.076 12.5312 770.065 12.4822C769.967 10.6362 768.137 9.16016 765.901 9.16016C765.886 9.16016 765.871 9.16016 765.856 9.16016C765.068 6.74816 762.453 5.07617 759.443 5.07617C756.432 5.07617 753.817 6.74816 753.029 9.16016C753.014 9.16016 753 9.16016 752.984 9.16016C750.73 9.16016 748.888 10.6602 748.818 12.5292C748.528 12.4982 748.236 12.4802 747.946 12.4802C744.28 12.4802 741.298 14.9702 741.298 18.0312C741.295 20.1182 742.663 21.9932 744.874 22.9542Z" stroke="white" stroke-width="3" stroke-miterlimit="10"/>
<path opacity="0.5" d="M876.836 61.1141C879.264 61.1141 881.586 60.5071 883.391 59.4001C884.385 59.6241 885.416 59.7361 886.461 59.7361C888.885 59.7361 891.203 59.1321 893.006 58.0291C893.942 58.3891 895.002 58.5811 896.086 58.5811C896.979 58.5811 897.84 58.4551 898.647 58.2081C899.499 59.8781 901.877 61.0301 904.512 61.0301C907.932 61.0301 910.715 59.1551 910.715 56.8481C910.715 55.0651 909.057 53.4931 906.572 52.9041C906.574 52.8721 906.574 52.8391 906.574 52.8051C906.574 50.4981 903.793 48.6231 900.373 48.6231C900.209 48.6231 900.043 48.6271 899.875 48.6371C899.145 46.8131 896.709 45.5481 893.887 45.5481C893.701 45.5481 893.51 45.5551 893.315 45.5671C893.321 45.4931 893.325 45.4201 893.325 45.3461C893.325 43.0411 890.542 41.1641 887.122 41.1641C884.438 41.1641 882.048 42.3441 881.224 44.0551C880.388 43.7821 879.46 43.6391 878.529 43.6391C875.109 43.6391 872.326 45.5151 872.326 47.8211C872.326 48.0151 872.347 48.2131 872.389 48.4091C869.067 49.5621 867.01 51.8471 867.01 54.3981C867.008 58.1021 871.416 61.1141 876.836 61.1141Z" stroke="white" stroke-width="3" stroke-miterlimit="10"/>
<path opacity="0.5" d="M33.5481 24.7202C34.0741 24.7202 34.5981 24.6582 35.1061 24.5352C36.3721 25.9432 38.1681 26.7482 40.0511 26.7482C41.0231 26.7482 41.9581 26.5432 42.8341 26.1372C44.0391 28.1642 46.2191 29.4182 48.5641 29.4182C50.6571 29.4182 52.6471 28.4122 53.9051 26.7212C54.1111 26.7402 54.3161 26.7482 54.5161 26.7482C56.6251 26.7482 58.6201 25.7312 59.8791 24.0212C60.2511 24.1282 60.6331 24.1832 61.0191 24.1832C63.3011 24.1832 65.1581 22.3072 65.1581 20.0022C65.1581 18.5342 64.3891 17.1722 63.1451 16.4172C63.1611 16.2692 63.1681 16.1362 63.1681 16.0082C63.1681 13.7022 61.3111 11.8272 59.0291 11.8272C58.7891 11.8272 58.5431 11.8502 58.2991 11.8942C57.3891 9.1272 54.8621 7.2822 51.9621 7.2822C51.1081 7.2822 50.2771 7.44219 49.4921 7.75919C48.2551 5.81519 46.1651 4.6582 43.8721 4.6582C41.4121 4.6582 39.1731 6.0092 38.0011 8.1882C37.7861 8.1682 37.5741 8.1582 37.3691 8.1582C34.9921 8.1582 32.7841 9.44519 31.5901 11.5232C28.8081 12.3852 26.8711 15.0262 26.8711 17.9732C26.8691 21.6932 29.8651 24.7202 33.5481 24.7202Z" stroke="white" stroke-width="3" stroke-miterlimit="10"/>
<path opacity="0.5" d="M224.557 43.0419C224.85 43.0419 225.142 43.0069 225.426 42.9379C226.132 43.7229 227.133 44.1709 228.182 44.1709C228.724 44.1709 229.245 44.0569 229.733 43.8299C230.404 44.9599 231.619 45.6589 232.926 45.6589C234.093 45.6589 235.202 45.0979 235.904 44.1559C236.018 44.1659 236.133 44.1709 236.244 44.1709C237.42 44.1709 238.532 43.6049 239.233 42.6509C239.44 42.7109 239.653 42.7419 239.868 42.7419C241.14 42.7419 242.175 41.6959 242.175 40.4109C242.175 39.5939 241.747 38.8339 241.053 38.4129C241.062 38.3309 241.066 38.2569 241.066 38.1849C241.066 36.8999 240.031 35.8549 238.759 35.8549C238.625 35.8549 238.488 35.8679 238.352 35.8919C237.845 34.3499 236.436 33.3219 234.82 33.3219C234.343 33.3219 233.881 33.4109 233.443 33.5879C232.753 32.5039 231.589 31.8589 230.31 31.8589C228.939 31.8589 227.691 32.6119 227.038 33.8269C226.918 33.8159 226.8 33.8099 226.685 33.8099C225.36 33.8099 224.129 34.5269 223.464 35.6849C221.913 36.1649 220.834 37.6379 220.834 39.2809C220.834 41.3549 222.504 43.0419 224.557 43.0419Z" stroke="white" stroke-width="3" stroke-miterlimit="10"/>
<path opacity="0.5" d="M1126.25 32.0371C1126.78 32.0371 1127.3 31.9751 1127.81 31.8521C1129.07 33.2601 1130.87 34.0651 1132.75 34.0651C1133.72 34.0651 1134.66 33.8601 1135.54 33.4541C1136.74 35.4811 1138.92 36.7351 1141.26 36.7351C1143.36 36.7351 1145.35 35.7291 1146.61 34.0381C1146.81 34.0571 1147.02 34.0651 1147.22 34.0651C1149.33 34.0651 1151.32 33.0481 1152.58 31.3381C1152.95 31.4451 1153.33 31.5001 1153.72 31.5001C1156 31.5001 1157.86 29.6241 1157.86 27.3191C1157.86 25.8511 1157.09 24.4891 1155.85 23.7341C1155.86 23.5861 1155.87 23.4531 1155.87 23.3251C1155.87 21.0191 1154.01 19.1441 1151.73 19.1441C1151.49 19.1441 1151.24 19.1671 1151 19.2111C1150.09 16.4441 1147.56 14.5991 1144.66 14.5991C1143.81 14.5991 1142.98 14.7591 1142.19 15.0761C1140.95 13.1321 1138.87 11.9751 1136.57 11.9751C1134.11 11.9751 1131.87 13.3261 1130.7 15.5051C1130.49 15.4851 1130.27 15.4751 1130.07 15.4751C1127.69 15.4751 1125.48 16.7621 1124.29 18.8401C1121.51 19.7021 1119.57 22.3431 1119.57 25.2901C1119.57 29.0111 1122.57 32.0371 1126.25 32.0371Z" stroke="white" stroke-width="3" stroke-miterlimit="10"/>
<path opacity="0.5" d="M1351.98 59.9652C1352.27 59.9652 1352.57 59.9302 1352.85 59.8612C1353.55 60.6462 1354.55 61.0942 1355.6 61.0942C1356.15 61.0942 1356.67 60.9802 1357.16 60.7532C1357.83 61.8832 1359.04 62.5822 1360.35 62.5822C1361.52 62.5822 1362.62 62.0212 1363.33 61.0792C1363.44 61.0892 1363.56 61.0942 1363.67 61.0942C1364.84 61.0942 1365.96 60.5282 1366.66 59.5742C1366.86 59.6342 1367.08 59.6652 1367.29 59.6652C1368.56 59.6652 1369.6 58.6192 1369.6 57.3342C1369.6 56.5172 1369.17 55.7572 1368.48 55.3362C1368.49 55.2542 1368.49 55.1802 1368.49 55.1082C1368.49 53.8232 1367.46 52.7782 1366.18 52.7782C1366.05 52.7782 1365.91 52.7912 1365.78 52.8152C1365.27 51.2732 1363.86 50.2452 1362.24 50.2452C1361.77 50.2452 1361.31 50.3342 1360.87 50.5112C1360.18 49.4272 1359.01 48.7822 1357.73 48.7822C1356.36 48.7822 1355.12 49.5352 1354.46 50.7502C1354.34 50.7392 1354.22 50.7332 1354.11 50.7332C1352.78 50.7332 1351.55 51.4502 1350.89 52.6082C1349.34 53.0882 1348.26 54.5612 1348.26 56.2042C1348.26 58.2772 1349.93 59.9652 1351.98 59.9652Z" stroke="white" stroke-width="3" stroke-miterlimit="10"/>
</g>
</svg>
