<svg width="92" height="118" viewBox="0 0 92 118" fill="none" xmlns="http://www.w3.org/2000/svg">
<rect x="1.5" y="44.5" width="9" height="72" rx="4.5" fill="#F2F2F0" stroke="#686767" stroke-width="3"/>
<rect x="18.5" y="44.5" width="9" height="72" rx="4.5" stroke="#686767" stroke-width="3"/>
<rect x="34.5" y="44.5" width="8" height="72" rx="4" fill="#F2F2F0" stroke="#686767" stroke-width="3"/>
<rect x="49.5" y="44.5" width="9" height="72" rx="4.5" stroke="#686767" stroke-width="3"/>
<rect x="65.5" y="44.5" width="9" height="72" rx="4.5" fill="#F2F2F0" stroke="#686767" stroke-width="3"/>
<rect x="81.5" y="44.5" width="9" height="72" rx="4.5" stroke="#686767" stroke-width="3"/>
<path d="M5.81038 2C8.21734 4.11966 11.5871 10.1872 5.81038 17.5C0.0336639 24.8128 4.48409 30.8803 7.43139 33" stroke="#1C2833" stroke-width="3" stroke-linecap="round"/>
<path d="M22.342 2C24.3478 4.11966 27.1559 10.1872 22.342 17.5C17.5281 24.8128 21.2367 30.8803 23.6928 33" stroke="#1C2833" stroke-width="3" stroke-linecap="round"/>
<path d="M38.342 2C40.3478 4.11966 43.1559 10.1872 38.342 17.5C33.5281 24.8128 37.2367 30.8803 39.6928 33" stroke="#1C2833" stroke-width="3" stroke-linecap="round"/>
<path d="M54.342 2C56.3478 4.11966 59.1559 10.1872 54.342 17.5C49.5281 24.8128 53.2367 30.8803 55.6928 33" stroke="#1C2833" stroke-width="3" stroke-linecap="round"/>
<path d="M69.8104 2C72.2173 4.11966 75.5871 10.1872 69.8104 17.5C64.0337 24.8128 68.4841 30.8803 71.4314 33" stroke="#1C2833" stroke-width="3" stroke-linecap="round"/>
<path d="M85.342 2C87.3478 4.11966 90.1559 10.1872 85.342 17.5C80.5281 24.8128 84.2367 30.8803 86.6928 33" stroke="#1C2833" stroke-width="3" stroke-linecap="round"/>
</svg>
