<svg width="17" height="18" viewBox="0 0 17 18" fill="none" xmlns="http://www.w3.org/2000/svg">
<path d="M13.1663 6.40033C12.9479 6.03901 12.6912 5.70339 12.3978 5.39717C11.8903 4.86741 11.299 4.45138 10.6404 4.16061C9.95805 3.85936 9.23376 3.70664 8.48767 3.70664C7.74158 3.70664 7.01729 3.8594 6.33493 4.16061C5.67634 4.45138 5.08503 4.86741 4.57752 5.39717C4.28415 5.70339 4.02741 6.03901 3.80899 6.40033H0.374504V4.16941C0.374504 2.21957 1.89426 0.633301 3.76231 0.633301H13.213C15.081 0.633301 16.6008 2.21957 16.6008 4.16938V6.4003L13.1663 6.40033ZM2.65166 4.01222H3.60242V3.01985H2.65166V4.01222Z" fill="white"/>
<path d="M3.33047 7.39258C3.08328 8.0573 2.95784 8.75804 2.95784 9.47836C2.95784 10.2571 3.10416 11.0131 3.39278 11.7253C3.67135 12.4127 4.06994 13.0299 4.57749 13.5596C5.08503 14.0894 5.67631 14.5054 6.3349 14.7962C7.01726 15.0974 7.74155 15.2501 8.48764 15.2501C9.23373 15.2501 9.95801 15.0974 10.6404 14.7962C11.299 14.5054 11.8903 14.0894 12.3978 13.5596C12.9053 13.0299 13.3039 12.4127 13.5825 11.7253C13.8711 11.0131 14.0174 10.2571 14.0174 9.47836C14.0174 8.75807 13.892 8.0573 13.6448 7.39258H16.6008V14.0335C16.6008 15.9833 15.081 17.5696 13.213 17.5696H3.76234C1.89426 17.5696 0.374504 15.9833 0.374504 14.0335V7.39258H3.33047Z" fill="white"/>
<path d="M8.48755 7.45654C9.55555 7.45654 10.4245 8.36349 10.4245 9.47823C10.4245 10.593 9.55555 11.4999 8.48755 11.4999C7.41955 11.4999 6.55063 10.593 6.55063 9.47827C6.55063 8.36352 7.41955 7.45654 8.48755 7.45654Z" fill="white"/>
<path d="M8.48756 4.69873C11.0165 4.69873 13.0666 6.83859 13.0666 9.4782C13.0666 12.1178 11.0165 14.2577 8.48756 14.2577C5.95862 14.2577 3.90854 12.1178 3.90854 9.47823C3.90854 6.83862 5.95862 4.69873 8.48756 4.69873ZM5.59987 9.47823C5.59987 11.1402 6.89527 12.4923 8.48756 12.4923C10.0799 12.4923 11.3753 11.1402 11.3753 9.47823C11.3753 7.81624 10.0799 6.46413 8.48756 6.46413C6.89527 6.46413 5.59987 7.81621 5.59987 9.47823Z" fill="white"/>
</svg>
