<svg width="18" height="18" viewBox="0 0 18 18" fill="none" xmlns="http://www.w3.org/2000/svg">
<g clip-path="url(#clip0_33_557)">
<path d="M4.32937 3.07365C4.32937 4.03653 3.55544 4.81673 2.60023 4.81673C1.64502 4.81673 0.871092 4.03653 0.871092 3.07365C0.871092 2.11147 1.64502 1.33057 2.60023 1.33057C3.55544 1.33057 4.32937 2.11147 4.32937 3.07365ZM4.34331 6.2112H0.857147V17.3669H4.34331V6.2112ZM9.90863 6.2112H6.44477V17.3669H9.90932V11.5109C9.90932 8.25479 14.1129 7.98844 14.1129 11.5109V17.3669H17.5907V10.3033C17.5907 4.80906 11.37 5.00917 9.90863 7.71373V6.2112Z" fill="white"/>
</g>
<defs>
<clipPath id="clip0_33_557">
<rect width="16.7336" height="16.7336" fill="white" transform="translate(0.857147 0.633301)"/>
</clipPath>
</defs>
</svg>
