<svg width="17" height="14" viewBox="0 0 17 14" fill="none" xmlns="http://www.w3.org/2000/svg">
<path fill-rule="evenodd" clip-rule="evenodd" d="M16.1234 2.13892C15.7112 2.69329 15.213 3.17687 14.6481 3.57099C14.6481 3.71581 14.6481 3.86063 14.6481 4.01349C14.6503 5.31541 14.3958 6.60477 13.8994 7.80649C13.4029 9.00822 12.6745 10.0983 11.7565 11.0133C10.8384 11.9282 9.74916 12.6498 8.55206 13.1359C7.35495 13.6221 6.07395 13.8631 4.78363 13.845C3.27679 13.85 1.78925 13.5031 0.43753 12.8312C0.401868 12.8155 0.371541 12.7896 0.350286 12.7568C0.32903 12.7239 0.317777 12.6854 0.317912 12.6462V12.5577C0.317912 12.5022 0.339757 12.449 0.37864 12.4098C0.417523 12.3706 0.47026 12.3485 0.525249 12.3485C2.00643 12.2993 3.43478 11.7814 4.60819 10.8682C3.95125 10.8548 3.31144 10.6544 2.76257 10.29C2.2137 9.92553 1.77813 9.41198 1.50611 8.80854C1.49232 8.77547 1.4872 8.73937 1.49123 8.70372C1.49527 8.66807 1.50833 8.63406 1.52915 8.60497C1.54997 8.57589 1.57786 8.55269 1.61014 8.53762C1.64241 8.52254 1.67799 8.5161 1.71345 8.51891C2.12091 8.56021 2.53244 8.52197 2.92557 8.40627C2.20426 8.25528 1.54912 7.87705 1.05465 7.32613C0.560185 6.77521 0.251938 6.08007 0.174372 5.34098C0.17159 5.30521 0.177976 5.26932 0.192916 5.23675C0.207856 5.20419 0.230847 5.17605 0.25968 5.15504C0.288512 5.13403 0.322216 5.12086 0.357553 5.11679C0.392889 5.11272 0.428669 5.11789 0.461453 5.1318C0.85862 5.30852 1.28736 5.40161 1.72142 5.40534C1.09082 4.98797 0.614999 4.37161 0.368294 3.65258C0.121589 2.93354 0.117894 2.15231 0.357785 1.43092C0.382817 1.36006 0.425659 1.29697 0.482115 1.24783C0.538572 1.19869 0.606709 1.16518 0.679857 1.15058C0.753004 1.13598 0.828655 1.1408 0.899405 1.16455C0.970154 1.18831 1.03358 1.23019 1.08346 1.28611C2.83345 3.16428 5.23796 4.28348 7.79001 4.40772C7.72464 4.14468 7.69249 3.87435 7.69431 3.60318C7.70599 2.90793 7.9222 2.23187 8.3155 1.66086C8.7088 1.08985 9.26144 0.649645 9.90323 0.396165C10.545 0.142684 11.247 0.0873606 11.92 0.237221C12.593 0.387081 13.2067 0.735363 13.6832 1.23783C14.3473 1.11024 14.9894 0.885266 15.5891 0.570066C15.6106 0.556512 15.6355 0.549327 15.6608 0.549327C15.6862 0.549327 15.7111 0.556512 15.7326 0.570066C15.746 0.591786 15.7532 0.616873 15.7532 0.642475C15.7532 0.668076 15.746 0.693164 15.7326 0.714883C15.4422 1.38555 14.9515 1.94806 14.3291 2.32396C14.8741 2.26022 15.4096 2.13056 15.924 1.93778C15.9452 1.92325 15.9702 1.91549 15.9958 1.91549C16.0214 1.91549 16.0464 1.92325 16.0675 1.93778C16.0855 1.94605 16.1014 1.95816 16.1142 1.97328C16.127 1.98839 16.1364 2.00614 16.1417 2.02528C16.147 2.04443 16.1481 2.06452 16.1449 2.08414C16.1418 2.10377 16.1344 2.12246 16.1234 2.13892Z" fill="white"/>
</svg>
